STARTFONT 2.1
COMMENT
COMMENT Converted from OpenType font "GenBasB.ttf" by "otf2bdf 3.0".
COMMENT
FONT -FreeType-Gentium Basic-Bold-R-Normal--19-190-72-72-P-94-ISO10646-1
SIZE 19 72 72
FONTBOUNDINGBOX 29 28 -10 -7
STARTPROPERTIES 19
FOUNDRY "FreeType"
FAMILY_NAME "Gentium Basic"
WEIGHT_NAME "Bold"
SLANT "R"
SETWIDTH_NAME "Normal"
ADD_STYLE_NAME ""
PIXEL_SIZE 19
POINT_SIZE 190
RESOLUTION_X 72
RESOLUTION_Y 72
SPACING "P"
AVERAGE_WIDTH 94
CHARSET_REGISTRY "ISO10646"
CHARSET_ENCODING "1"
FONT_ASCENT 16
FONT_DESCENT 5
COPYRIGHT "Copyright (c) SIL International, 2003-2008."
_OTF_FONTFILE "GenBasB.ttf"
_OTF_PSNAME "GentiumBasic-Bold"
ENDPROPERTIES
CHARS 704
STARTCHAR 0020
ENCODING 32
SWIDTH 263 0
DWIDTH 5 0
BBX 0 0 0 0
BITMAP
ENDCHAR
STARTCHAR 0021
ENCODING 33
SWIDTH 315 0
DWIDTH 6 0
BBX 3 14 1 0
BITMAP
20
60
60
60
60
60
60
60
60
60
00
E0
E0
C0
ENDCHAR
STARTCHAR 0022
ENCODING 34
SWIDTH 473 0
DWIDTH 9 0
BBX 7 6 1 8
BITMAP
66
EC
6C
4C
44
44
ENDCHAR
STARTCHAR 0023
ENCODING 35
SWIDTH 526 0
DWIDTH 10 0
BBX 9 11 1 1
BITMAP
1B00
1A00
1200
7F80
3600
2400
2400
FF00
6800
4800
5800
ENDCHAR
STARTCHAR 0024
ENCODING 36
SWIDTH 473 0
DWIDTH 9 0
BBX 8 15 0 -2
BITMAP
08
08
3F
4B
4A
68
3C
1E
0B
89
49
EB
7E
08
08
ENDCHAR
STARTCHAR 0025
ENCODING 37
SWIDTH 736 0
DWIDTH 14 0
BBX 12 12 1 0
BITMAP
7020
9040
8880
8980
8B00
9200
64E0
0D10
1910
1110
2110
60E0
ENDCHAR
STARTCHAR 0026
ENCODING 38
SWIDTH 684 0
DWIDTH 13 0
BBX 12 13 1 0
BITMAP
1E00
2300
6300
6300
7600
7C00
78F0
FC40
DE40
CF40
C780
C1C0
3EF0
ENDCHAR
STARTCHAR 0027
ENCODING 39
SWIDTH 263 0
DWIDTH 5 0
BBX 3 6 1 8
BITMAP
60
E0
60
40
40
40
ENDCHAR
STARTCHAR 0028
ENCODING 40
SWIDTH 315 0
DWIDTH 6 0
BBX 4 18 1 -3
BITMAP
10
30
60
60
40
C0
C0
C0
C0
C0
C0
C0
C0
C0
60
60
30
10
ENDCHAR
STARTCHAR 0029
ENCODING 41
SWIDTH 315 0
DWIDTH 6 0
BBX 4 18 1 -3
BITMAP
80
C0
60
60
30
30
30
30
30
30
30
30
30
20
60
60
C0
80
ENDCHAR
STARTCHAR 002A
ENCODING 42
SWIDTH 421 0
DWIDTH 8 0
BBX 7 7 1 7
BITMAP
30
B4
DE
30
DE
94
30
ENDCHAR
STARTCHAR 002B
ENCODING 43
SWIDTH 421 0
DWIDTH 8 0
BBX 7 7 1 2
BITMAP
10
10
10
FE
10
10
10
ENDCHAR
STARTCHAR 002C
ENCODING 44
SWIDTH 263 0
DWIDTH 5 0
BBX 3 6 1 -4
BITMAP
60
E0
60
60
40
80
ENDCHAR
STARTCHAR 002D
ENCODING 45
SWIDTH 368 0
DWIDTH 7 0
BBX 6 1 0 4
BITMAP
FC
ENDCHAR
STARTCHAR 002E
ENCODING 46
SWIDTH 263 0
DWIDTH 5 0
BBX 3 3 1 0
BITMAP
E0
E0
C0
ENDCHAR
STARTCHAR 002F
ENCODING 47
SWIDTH 473 0
DWIDTH 9 0
BBX 9 18 0 -3
BITMAP
0180
0300
0300
0300
0600
0600
0400
0C00
0C00
1800
1800
1000
3000
3000
2000
6000
6000
C000
ENDCHAR
STARTCHAR 0030
ENCODING 48
SWIDTH 526 0
DWIDTH 10 0
BBX 8 11 1 0
BITMAP
3C
66
42
C3
C3
C3
C3
C3
42
62
3C
ENDCHAR
STARTCHAR 0031
ENCODING 49
SWIDTH 526 0
DWIDTH 10 0
BBX 7 12 1 0
BITMAP
08
78
98
18
18
18
18
18
18
18
18
FE
ENDCHAR
STARTCHAR 0032
ENCODING 50
SWIDTH 473 0
DWIDTH 9 0
BBX 7 11 1 0
BITMAP
3C
66
E6
06
04
08
10
22
42
7E
FE
ENDCHAR
STARTCHAR 0033
ENCODING 51
SWIDTH 473 0
DWIDTH 9 0
BBX 7 11 1 0
BITMAP
3C
66
E6
06
08
1C
06
06
06
8C
78
ENDCHAR
STARTCHAR 0034
ENCODING 52
SWIDTH 473 0
DWIDTH 9 0
BBX 8 12 0 0
BITMAP
06
0E
0E
16
16
26
66
46
FF
06
06
1F
ENDCHAR
STARTCHAR 0035
ENCODING 53
SWIDTH 526 0
DWIDTH 10 0
BBX 7 11 1 0
BITMAP
7E
7C
40
40
7C
86
06
06
06
86
7C
ENDCHAR
STARTCHAR 0036
ENCODING 54
SWIDTH 526 0
DWIDTH 10 0
BBX 8 12 1 0
BITMAP
0E
38
70
60
C0
FE
C3
C3
C3
C3
62
3C
ENDCHAR
STARTCHAR 0037
ENCODING 55
SWIDTH 526 0
DWIDTH 10 0
BBX 8 11 1 0
BITMAP
FF
FE
82
06
04
0C
08
18
18
30
60
ENDCHAR
STARTCHAR 0038
ENCODING 56
SWIDTH 526 0
DWIDTH 10 0
BBX 8 11 1 0
BITMAP
3C
66
66
66
7C
3E
47
C3
C3
C3
3C
ENDCHAR
STARTCHAR 0039
ENCODING 57
SWIDTH 526 0
DWIDTH 10 0
BBX 8 11 1 0
BITMAP
3C
46
C3
C3
C3
C3
3F
02
06
0C
70
ENDCHAR
STARTCHAR 003A
ENCODING 58
SWIDTH 263 0
DWIDTH 5 0
BBX 3 9 1 0
BITMAP
E0
E0
C0
00
00
00
E0
E0
C0
ENDCHAR
STARTCHAR 003B
ENCODING 59
SWIDTH 263 0
DWIDTH 5 0
BBX 3 13 1 -4
BITMAP
E0
E0
40
00
00
00
00
60
E0
60
60
40
80
ENDCHAR
STARTCHAR 003C
ENCODING 60
SWIDTH 473 0
DWIDTH 9 0
BBX 8 7 0 2
BITMAP
01
0F
3C
60
F8
1F
03
ENDCHAR
STARTCHAR 003D
ENCODING 61
SWIDTH 473 0
DWIDTH 9 0
BBX 8 4 0 3
BITMAP
7F
80
00
FF
ENDCHAR
STARTCHAR 003E
ENCODING 62
SWIDTH 473 0
DWIDTH 9 0
BBX 8 7 0 2
BITMAP
60
F8
0F
07
1E
78
C0
ENDCHAR
STARTCHAR 003F
ENCODING 63
SWIDTH 473 0
DWIDTH 9 0
BBX 7 14 1 0
BITMAP
3C
46
C6
86
06
0C
08
10
10
10
00
38
38
38
ENDCHAR
STARTCHAR 0040
ENCODING 64
SWIDTH 842 0
DWIDTH 16 0
BBX 14 17 1 -4
BITMAP
07C0
1FF0
3838
2008
63A4
4464
CC64
CC64
CC64
CC64
CC68
C7F8
6770
7008
3818
1FF0
0FC0
ENDCHAR
STARTCHAR 0041
ENCODING 65
SWIDTH 631 0
DWIDTH 12 0
BBX 12 12 0 0
BITMAP
0600
0E00
0F00
0B00
1B00
1380
1180
3F80
21C0
20C0
60E0
F1F0
ENDCHAR
STARTCHAR 0042
ENCODING 66
SWIDTH 578 0
DWIDTH 11 0
BBX 9 12 1 0
BITMAP
FE00
6300
6300
6300
6200
7E00
6380
6180
6180
6180
6180
FE00
ENDCHAR
STARTCHAR 0043
ENCODING 67
SWIDTH 578 0
DWIDTH 11 0
BBX 9 12 1 0
BITMAP
1F00
6380
4100
C000
C000
C000
C000
C000
C000
6180
7F00
3C00
ENDCHAR
STARTCHAR 0044
ENCODING 68
SWIDTH 631 0
DWIDTH 12 0
BBX 10 12 1 0
BITMAP
FE00
6380
6180
60C0
60C0
60C0
60C0
60C0
60C0
6180
6300
FE00
ENDCHAR
STARTCHAR 0045
ENCODING 69
SWIDTH 526 0
DWIDTH 10 0
BBX 10 12 0 0
BITMAP
FF80
3080
3080
3000
3000
3F00
3200
3000
3000
3040
3080
FF80
ENDCHAR
STARTCHAR 0046
ENCODING 70
SWIDTH 526 0
DWIDTH 10 0
BBX 9 12 0 0
BITMAP
FF80
3080
3080
3000
3000
3F00
3200
3000
3000
3000
3000
FC00
ENDCHAR
STARTCHAR 0047
ENCODING 71
SWIDTH 578 0
DWIDTH 11 0
BBX 10 12 1 0
BITMAP
1F80
2180
4100
4000
C000
C000
C000
C3C0
C180
4180
6180
1F00
ENDCHAR
STARTCHAR 0048
ENCODING 72
SWIDTH 684 0
DWIDTH 13 0
BBX 11 12 1 0
BITMAP
F1E0
60C0
60C0
60C0
60C0
7FC0
60C0
60C0
60C0
60C0
60C0
F1E0
ENDCHAR
STARTCHAR 0049
ENCODING 73
SWIDTH 315 0
DWIDTH 6 0
BBX 4 12 1 0
BITMAP
F0
60
60
60
60
60
60
60
60
60
60
F0
ENDCHAR
STARTCHAR 004A
ENCODING 74
SWIDTH 315 0
DWIDTH 6 0
BBX 8 16 -3 -4
BITMAP
1F
06
06
06
06
06
06
06
06
06
06
06
06
44
7C
F0
ENDCHAR
STARTCHAR 004B
ENCODING 75
SWIDTH 631 0
DWIDTH 12 0
BBX 11 12 1 0
BITMAP
F3C0
6300
6300
6600
6C00
7800
7C00
6E00
6700
6300
6180
F1E0
ENDCHAR
STARTCHAR 004C
ENCODING 76
SWIDTH 526 0
DWIDTH 10 0
BBX 8 12 1 0
BITMAP
F0
60
60
60
60
60
60
60
60
61
61
FF
ENDCHAR
STARTCHAR 004D
ENCODING 77
SWIDTH 842 0
DWIDTH 16 0
BBX 15 12 0 0
BITMAP
701E
381C
381C
3C3C
2C2C
2C6C
264C
26CC
238C
238C
238C
F11E
ENDCHAR
STARTCHAR 004E
ENCODING 78
SWIDTH 684 0
DWIDTH 13 0
BBX 11 12 1 0
BITMAP
E0E0
7040
7040
7840
5C40
4E40
4E40
4740
43C0
41C0
41C0
E0C0
ENDCHAR
STARTCHAR 004F
ENCODING 79
SWIDTH 631 0
DWIDTH 12 0
BBX 10 12 1 0
BITMAP
1E00
2180
4180
40C0
C0C0
C0C0
C0C0
C0C0
C080
6080
6100
1E00
ENDCHAR
STARTCHAR 0050
ENCODING 80
SWIDTH 578 0
DWIDTH 11 0
BBX 9 12 1 0
BITMAP
FE00
6300
6180
6180
6180
6100
7E00
6000
6000
6000
6000
F800
ENDCHAR
STARTCHAR 0051
ENCODING 81
SWIDTH 631 0
DWIDTH 12 0
BBX 12 15 1 -3
BITMAP
1E00
2180
4180
40C0
C0C0
C0C0
C0C0
C0C0
C0C0
6080
2100
1E00
0390
01F0
0060
ENDCHAR
STARTCHAR 0052
ENCODING 82
SWIDTH 631 0
DWIDTH 12 0
BBX 11 12 1 0
BITMAP
FE00
6380
6180
6180
6180
7F00
7E00
6600
6300
6380
61C0
F1E0
ENDCHAR
STARTCHAR 0053
ENCODING 83
SWIDTH 526 0
DWIDTH 10 0
BBX 8 12 1 0
BITMAP
3E
C6
80
80
F0
7C
1E
07
03
83
C2
FC
ENDCHAR
STARTCHAR 0054
ENCODING 84
SWIDTH 578 0
DWIDTH 11 0
BBX 10 12 0 0
BITMAP
FFC0
8C40
8C40
0C00
0C00
0C00
0C00
0C00
0C00
0C00
0C00
1E00
ENDCHAR
STARTCHAR 0055
ENCODING 85
SWIDTH 684 0
DWIDTH 13 0
BBX 11 12 1 0
BITMAP
F0E0
6040
6040
6040
6040
6040
6040
6040
6040
6080
3080
1F00
ENDCHAR
STARTCHAR 0056
ENCODING 86
SWIDTH 684 0
DWIDTH 13 0
BBX 12 12 0 0
BITMAP
F8F0
7060
3040
3840
18C0
1880
1C80
0D80
0F00
0700
0700
0600
ENDCHAR
STARTCHAR 0057
ENCODING 87
SWIDTH 842 0
DWIDTH 16 0
BBX 16 12 0 0
BITMAP
F88F
3186
31C4
31C4
33C4
3A6C
1A6C
1E78
1C38
1C38
0C18
0810
ENDCHAR
STARTCHAR 0058
ENCODING 88
SWIDTH 631 0
DWIDTH 12 0
BBX 12 12 0 0
BITMAP
F9E0
30C0
3880
1D00
0F00
0E00
0F00
0B00
1B80
31C0
20E0
F1F0
ENDCHAR
STARTCHAR 0059
ENCODING 89
SWIDTH 631 0
DWIDTH 12 0
BBX 11 12 0 0
BITMAP
F1E0
30C0
1880
1D80
0D00
0F00
0600
0600
0600
0600
0600
0F00
ENDCHAR
STARTCHAR 005A
ENCODING 90
SWIDTH 526 0
DWIDTH 10 0
BBX 10 12 0 0
BITMAP
7FC0
4380
4300
0700
0600
0E00
1C00
1800
3800
3040
70C0
FFC0
ENDCHAR
STARTCHAR 005B
ENCODING 91
SWIDTH 315 0
DWIDTH 6 0
BBX 5 18 1 -3
BITMAP
F8
C0
C0
C0
C0
C0
C0
C0
C0
C0
C0
C0
C0
C0
C0
C0
C0
F8
ENDCHAR
STARTCHAR 005C
ENCODING 92
SWIDTH 473 0
DWIDTH 9 0
BBX 9 18 0 -3
BITMAP
C000
6000
6000
2000
3000
3000
1000
1800
1800
0C00
0C00
0400
0600
0600
0200
0300
0300
0180
ENDCHAR
STARTCHAR 005D
ENCODING 93
SWIDTH 315 0
DWIDTH 6 0
BBX 5 18 0 -3
BITMAP
F8
18
18
18
18
18
18
18
18
18
18
18
18
18
18
18
18
F8
ENDCHAR
STARTCHAR 005E
ENCODING 94
SWIDTH 473 0
DWIDTH 9 0
BBX 7 9 1 5
BITMAP
10
18
28
2C
2C
44
46
82
82
ENDCHAR
STARTCHAR 005F
ENCODING 95
SWIDTH 473 0
DWIDTH 9 0
BBX 9 1 0 -2
BITMAP
FF80
ENDCHAR
STARTCHAR 0060
ENCODING 96
SWIDTH 315 0
DWIDTH 6 0
BBX 4 4 0 10
BITMAP
C0
60
30
10
ENDCHAR
STARTCHAR 0061
ENCODING 97
SWIDTH 473 0
DWIDTH 9 0
BBX 8 9 1 0
BITMAP
3C
66
C6
0E
7E
C6
C6
CF
76
ENDCHAR
STARTCHAR 0062
ENCODING 98
SWIDTH 526 0
DWIDTH 10 0
BBX 9 14 0 0
BITMAP
6000
E000
6000
6000
6000
6700
7F00
7080
6080
6080
6080
6100
7E00
3C00
ENDCHAR
STARTCHAR 0063
ENCODING 99
SWIDTH 473 0
DWIDTH 9 0
BBX 7 9 1 0
BITMAP
3E
46
C4
C0
C0
C0
C2
7C
38
ENDCHAR
STARTCHAR 0064
ENCODING 100
SWIDTH 578 0
DWIDTH 11 0
BBX 9 14 1 0
BITMAP
0700
0300
0300
0300
0300
3F00
4300
C300
C300
C300
C300
E300
7F80
3B00
ENDCHAR
STARTCHAR 0065
ENCODING 101
SWIDTH 473 0
DWIDTH 9 0
BBX 7 9 1 0
BITMAP
3C
64
C6
C6
FE
C0
E2
7C
38
ENDCHAR
STARTCHAR 0066
ENCODING 102
SWIDTH 315 0
DWIDTH 6 0
BBX 7 14 1 0
BITMAP
1E
26
60
60
60
FC
60
60
60
60
60
60
60
F8
ENDCHAR
STARTCHAR 0067
ENCODING 103
SWIDTH 526 0
DWIDTH 10 0
BBX 10 13 0 -4
BITMAP
3CC0
4300
C300
C300
E200
3C00
7000
7C00
7F80
C380
C180
C100
3E00
ENDCHAR
STARTCHAR 0068
ENCODING 104
SWIDTH 526 0
DWIDTH 10 0
BBX 9 14 1 0
BITMAP
6000
E000
6000
6000
6000
6600
7F00
7300
6300
6300
6300
6300
6300
F780
ENDCHAR
STARTCHAR 0069
ENCODING 105
SWIDTH 315 0
DWIDTH 6 0
BBX 4 12 1 0
BITMAP
30
70
00
60
E0
60
60
60
60
60
60
F0
ENDCHAR
STARTCHAR 006A
ENCODING 106
SWIDTH 263 0
DWIDTH 5 0
BBX 7 16 -3 -4
BITMAP
0E
0E
00
0C
1C
0C
0C
0C
0C
0C
0C
0C
0C
88
F8
E0
ENDCHAR
STARTCHAR 006B
ENCODING 107
SWIDTH 526 0
DWIDTH 10 0
BBX 10 14 1 0
BITMAP
6000
E000
6000
6000
6000
6780
6300
6400
6800
7C00
6E00
6600
6300
F3C0
ENDCHAR
STARTCHAR 006C
ENCODING 108
SWIDTH 315 0
DWIDTH 6 0
BBX 5 14 0 0
BITMAP
30
F0
30
30
30
30
30
30
30
30
30
30
30
F8
ENDCHAR
STARTCHAR 006D
ENCODING 109
SWIDTH 842 0
DWIDTH 16 0
BBX 14 9 1 0
BITMAP
6E70
FFF8
7398
6318
6318
6318
6318
6318
F7BC
ENDCHAR
STARTCHAR 006E
ENCODING 110
SWIDTH 526 0
DWIDTH 10 0
BBX 9 9 1 0
BITMAP
6600
FF00
7300
6300
6300
6300
6300
6300
F780
ENDCHAR
STARTCHAR 006F
ENCODING 111
SWIDTH 526 0
DWIDTH 10 0
BBX 8 9 1 0
BITMAP
3C
46
C3
C3
C3
C3
C2
62
3C
ENDCHAR
STARTCHAR 0070
ENCODING 112
SWIDTH 578 0
DWIDTH 11 0
BBX 9 13 1 -4
BITMAP
6700
FF00
6180
6180
6180
6180
6100
7F00
6E00
6000
6000
6000
F800
ENDCHAR
STARTCHAR 0071
ENCODING 113
SWIDTH 526 0
DWIDTH 10 0
BBX 9 13 1 -4
BITMAP
1D00
6700
C300
C300
C300
C300
C700
7F00
3B00
0300
0300
0300
0F80
ENDCHAR
STARTCHAR 0072
ENCODING 114
SWIDTH 421 0
DWIDTH 8 0
BBX 8 9 0 0
BITMAP
37
FF
39
31
30
30
30
30
FC
ENDCHAR
STARTCHAR 0073
ENCODING 115
SWIDTH 421 0
DWIDTH 8 0
BBX 6 9 1 0
BITMAP
F0
98
90
E0
78
1C
84
C4
F8
ENDCHAR
STARTCHAR 0074
ENCODING 116
SWIDTH 368 0
DWIDTH 7 0
BBX 6 12 1 0
BITMAP
20
60
60
FC
60
60
60
60
60
64
7C
30
ENDCHAR
STARTCHAR 0075
ENCODING 117
SWIDTH 578 0
DWIDTH 11 0
BBX 10 9 0 0
BITMAP
E380
6180
6180
6180
6180
6180
6380
7FC0
3980
ENDCHAR
STARTCHAR 0076
ENCODING 118
SWIDTH 526 0
DWIDTH 10 0
BBX 10 9 0 0
BITMAP
F1C0
6180
3100
3300
3A00
1A00
1E00
0C00
0800
ENDCHAR
STARTCHAR 0077
ENCODING 119
SWIDTH 736 0
DWIDTH 14 0
BBX 14 9 0 0
BITMAP
F13C
6318
3390
3390
35B0
3CE0
1CE0
1860
1840
ENDCHAR
STARTCHAR 0078
ENCODING 120
SWIDTH 526 0
DWIDTH 10 0
BBX 10 9 0 0
BITMAP
FBC0
7100
3A00
1C00
0C00
1E00
3700
2380
F7C0
ENDCHAR
STARTCHAR 0079
ENCODING 121
SWIDTH 526 0
DWIDTH 10 0
BBX 11 13 -1 -4
BITMAP
79E0
3880
1880
1980
0D00
0D00
0E00
0600
0600
0400
0C00
7800
F000
ENDCHAR
STARTCHAR 007A
ENCODING 122
SWIDTH 473 0
DWIDTH 9 0
BBX 7 9 1 0
BITMAP
FE
8E
9C
18
38
30
62
E2
FE
ENDCHAR
STARTCHAR 007B
ENCODING 123
SWIDTH 315 0
DWIDTH 6 0
BBX 5 18 1 -3
BITMAP
18
30
60
60
60
30
30
30
60
E0
30
30
30
60
60
60
30
18
ENDCHAR
STARTCHAR 007C
ENCODING 124
SWIDTH 210 0
DWIDTH 4 0
BBX 1 20 2 -4
BITMAP
80
80
80
80
80
80
80
80
80
80
80
80
80
80
80
80
80
80
80
80
ENDCHAR
STARTCHAR 007D
ENCODING 125
SWIDTH 315 0
DWIDTH 6 0
BBX 6 18 0 -3
BITMAP
40
E0
30
30
30
30
30
30
1C
18
30
30
30
30
30
30
60
C0
ENDCHAR
STARTCHAR 007E
ENCODING 126
SWIDTH 473 0
DWIDTH 9 0
BBX 9 4 0 4
BITMAP
3000
7D80
4F00
8600
ENDCHAR
STARTCHAR 00A0
ENCODING 160
SWIDTH 263 0
DWIDTH 5 0
BBX 0 0 0 0
BITMAP
ENDCHAR
STARTCHAR 00A1
ENCODING 161
SWIDTH 315 0
DWIDTH 6 0
BBX 3 14 1 -5
BITMAP
60
E0
40
00
60
60
60
60
60
60
60
60
60
40
ENDCHAR
STARTCHAR 00A2
ENCODING 162
SWIDTH 526 0
DWIDTH 10 0
BBX 7 12 2 0
BITMAP
10
10
3E
56
90
90
90
90
56
7C
10
10
ENDCHAR
STARTCHAR 00A3
ENCODING 163
SWIDTH 526 0
DWIDTH 10 0
BBX 9 11 0 0
BITMAP
0F80
3180
3100
7000
7000
FE00
7000
7000
6080
7B80
FF00
ENDCHAR
STARTCHAR 00A4
ENCODING 164
SWIDTH 526 0
DWIDTH 10 0
BBX 8 7 1 2
BITMAP
FF
42
42
42
42
66
FF
ENDCHAR
STARTCHAR 00A5
ENCODING 165
SWIDTH 526 0
DWIDTH 10 0
BBX 10 11 0 0
BITMAP
E3C0
7100
3300
1A00
1A00
0C00
7F80
0C00
0C00
0C00
1E00
ENDCHAR
STARTCHAR 00A6
ENCODING 166
SWIDTH 210 0
DWIDTH 4 0
BBX 1 20 2 -4
BITMAP
80
80
80
80
80
80
80
80
80
00
00
80
80
80
80
80
80
80
80
80
ENDCHAR
STARTCHAR 00A7
ENCODING 167
SWIDTH 526 0
DWIDTH 10 0
BBX 8 13 1 0
BITMAP
78
98
88
F0
BE
87
C1
71
3E
0E
22
32
3E
ENDCHAR
STARTCHAR 00A8
ENCODING 168
SWIDTH 368 0
DWIDTH 7 0
BBX 6 3 0 10
BITMAP
EC
FC
DC
ENDCHAR
STARTCHAR 00A9
ENCODING 169
SWIDTH 736 0
DWIDTH 14 0
BBX 12 13 1 0
BITMAP
0F00
30C0
4020
8F20
9110
9110
9010
9010
9010
88A0
4F20
2040
1F80
ENDCHAR
STARTCHAR 00AA
ENCODING 170
SWIDTH 263 0
DWIDTH 5 0
BBX 5 7 0 5
BITMAP
70
D0
70
90
F8
00
F0
ENDCHAR
STARTCHAR 00AB
ENCODING 171
SWIDTH 526 0
DWIDTH 10 0
BBX 8 9 1 0
BITMAP
11
22
66
CC
DC
CC
66
22
11
ENDCHAR
STARTCHAR 00AC
ENCODING 172
SWIDTH 526 0
DWIDTH 10 0
BBX 8 4 1 2
BITMAP
FF
01
01
01
ENDCHAR
STARTCHAR 00AD
ENCODING 173
SWIDTH 368 0
DWIDTH 7 0
BBX 6 1 0 4
BITMAP
FC
ENDCHAR
STARTCHAR 00AE
ENCODING 174
SWIDTH 368 0
DWIDTH 7 0
BBX 7 7 0 7
BITMAP
38
44
BA
AA
B2
6C
38
ENDCHAR
STARTCHAR 00AF
ENCODING 175
SWIDTH 473 0
DWIDTH 9 0
BBX 8 2 1 11
BITMAP
FF
FE
ENDCHAR
STARTCHAR 00B0
ENCODING 176
SWIDTH 368 0
DWIDTH 7 0
BBX 5 5 1 7
BITMAP
70
88
88
88
70
ENDCHAR
STARTCHAR 00B1
ENCODING 177
SWIDTH 421 0
DWIDTH 8 0
BBX 8 9 0 1
BITMAP
08
08
08
7F
08
08
08
00
FF
ENDCHAR
STARTCHAR 00B2
ENCODING 178
SWIDTH 368 0
DWIDTH 7 0
BBX 4 7 2 6
BITMAP
70
D0
10
20
40
90
F0
ENDCHAR
STARTCHAR 00B3
ENCODING 179
SWIDTH 315 0
DWIDTH 6 0
BBX 5 7 0 6
BITMAP
38
68
08
18
08
88
70
ENDCHAR
STARTCHAR 00B4
ENCODING 180
SWIDTH 315 0
DWIDTH 6 0
BBX 4 4 2 10
BITMAP
30
60
C0
80
ENDCHAR
STARTCHAR 00B5
ENCODING 181
SWIDTH 578 0
DWIDTH 11 0
BBX 10 13 1 -4
BITMAP
6300
E300
6300
6300
6300
6300
6700
7F80
5B40
4000
4000
6000
7000
ENDCHAR
STARTCHAR 00B6
ENCODING 182
SWIDTH 578 0
DWIDTH 11 0
BBX 9 14 1 -2
BITMAP
3F80
6500
C500
C500
C500
6500
3D00
0500
0500
0500
0500
0500
0500
0F80
ENDCHAR
STARTCHAR 00B7
ENCODING 183
SWIDTH 210 0
DWIDTH 4 0
BBX 3 3 0 5
BITMAP
E0
E0
C0
ENDCHAR
STARTCHAR 00B8
ENCODING 184
SWIDTH 210 0
DWIDTH 4 0
BBX 3 4 1 -4
BITMAP
40
60
60
C0
ENDCHAR
STARTCHAR 00B9
ENCODING 185
SWIDTH 368 0
DWIDTH 7 0
BBX 5 7 1 6
BITMAP
20
E0
20
20
20
20
F8
ENDCHAR
STARTCHAR 00BA
ENCODING 186
SWIDTH 263 0
DWIDTH 5 0
BBX 4 7 0 5
BITMAP
60
90
90
90
60
00
F0
ENDCHAR
STARTCHAR 00BB
ENCODING 187
SWIDTH 526 0
DWIDTH 10 0
BBX 8 9 1 0
BITMAP
88
4C
66
37
33
37
66
4C
88
ENDCHAR
STARTCHAR 00BC
ENCODING 188
SWIDTH 631 0
DWIDTH 12 0
BBX 11 11 1 0
BITMAP
4040
C080
4100
4300
4600
E400
08C0
1940
3240
23E0
C0E0
ENDCHAR
STARTCHAR 00BD
ENCODING 189
SWIDTH 631 0
DWIDTH 12 0
BBX 10 11 1 0
BITMAP
4040
C080
4100
4100
4200
E4C0
0940
1A80
1080
2140
63C0
ENDCHAR
STARTCHAR 00BE
ENCODING 190
SWIDTH 578 0
DWIDTH 11 0
BBX 11 11 0 0
BITMAP
6020
D040
2080
9180
E300
0200
04C0
0D40
1940
13E0
60E0
ENDCHAR
STARTCHAR 00BF
ENCODING 191
SWIDTH 473 0
DWIDTH 9 0
BBX 7 14 1 -5
BITMAP
38
38
30
00
10
10
10
20
60
C0
C2
C6
C4
78
ENDCHAR
STARTCHAR 00C0
ENCODING 192
SWIDTH 631 0
DWIDTH 12 0
BBX 12 16 0 0
BITMAP
1800
1C00
0300
0000
0600
0E00
0F00
0B00
1B00
1380
1180
3F80
21C0
20C0
60E0
F1F0
ENDCHAR
STARTCHAR 00C1
ENCODING 193
SWIDTH 631 0
DWIDTH 12 0
BBX 12 16 0 0
BITMAP
0100
0780
0C00
0000
0600
0E00
0F00
0B00
1B00
1380
1180
3F80
21C0
20C0
60E0
F1F0
ENDCHAR
STARTCHAR 00C2
ENCODING 194
SWIDTH 631 0
DWIDTH 12 0
BBX 12 16 0 0
BITMAP
0600
0F00
1080
0000
0600
0E00
0F00
0B00
1B00
1380
1180
3F80
21C0
20C0
60E0
F1F0
ENDCHAR
STARTCHAR 00C3
ENCODING 195
SWIDTH 631 0
DWIDTH 12 0
BBX 12 16 0 0
BITMAP
0CC0
1F80
2300
0000
0600
0E00
0F00
0B00
1B00
1380
1180
3F80
21C0
20C0
60E0
F1F0
ENDCHAR
STARTCHAR 00C4
ENCODING 196
SWIDTH 631 0
DWIDTH 12 0
BBX 12 16 0 0
BITMAP
1B00
1B80
1B00
0000
0600
0E00
0F00
0B00
1B00
1380
1180
3F80
21C0
20C0
60E0
F1F0
ENDCHAR
STARTCHAR 00C5
ENCODING 197
SWIDTH 631 0
DWIDTH 12 0
BBX 12 17 0 0
BITMAP
0600
0900
1100
0E00
0000
0600
0E00
0F00
0B00
1B00
1380
1180
3F80
21C0
20C0
60E0
F1F0
ENDCHAR
STARTCHAR 00C6
ENCODING 198
SWIDTH 789 0
DWIDTH 15 0
BBX 15 12 0 0
BITMAP
1FFC
0584
0584
0D80
0980
1FF8
1190
1180
3180
2182
6184
F3FC
ENDCHAR
STARTCHAR 00C7
ENCODING 199
SWIDTH 578 0
DWIDTH 11 0
BBX 9 16 1 -4
BITMAP
1F00
6380
4100
C000
C000
C000
C000
C000
C000
6080
3B80
1E00
0800
0600
0E00
1C00
ENDCHAR
STARTCHAR 00C8
ENCODING 200
SWIDTH 526 0
DWIDTH 10 0
BBX 10 16 0 0
BITMAP
3000
3800
0600
0000
FF80
3080
3080
3000
3000
3F00
3200
3000
3000
3040
3080
FF80
ENDCHAR
STARTCHAR 00C9
ENCODING 201
SWIDTH 526 0
DWIDTH 10 0
BBX 10 16 0 0
BITMAP
0300
0700
1800
0000
FF80
3080
3080
3000
3000
3F00
3200
3000
3000
3040
3080
FF80
ENDCHAR
STARTCHAR 00CA
ENCODING 202
SWIDTH 526 0
DWIDTH 10 0
BBX 10 16 0 0
BITMAP
0C00
1E00
2100
0000
FF80
3080
3080
3000
3000
3F00
3200
3000
3000
3040
3080
FF80
ENDCHAR
STARTCHAR 00CB
ENCODING 203
SWIDTH 526 0
DWIDTH 10 0
BBX 10 16 0 0
BITMAP
3300
3F00
3600
0000
FF80
3080
3080
3000
3000
3F00
3200
3000
3000
3040
3080
FF80
ENDCHAR
STARTCHAR 00CC
ENCODING 204
SWIDTH 315 0
DWIDTH 6 0
BBX 5 16 0 0
BITMAP
C0
E0
18
00
78
30
30
30
30
30
30
30
30
30
30
78
ENDCHAR
STARTCHAR 00CD
ENCODING 205
SWIDTH 315 0
DWIDTH 6 0
BBX 5 16 1 0
BITMAP
18
38
C0
00
F0
60
60
60
60
60
60
60
60
60
60
F0
ENDCHAR
STARTCHAR 00CE
ENCODING 206
SWIDTH 315 0
DWIDTH 6 0
BBX 6 16 0 0
BITMAP
30
78
84
00
78
30
30
30
30
30
30
30
30
30
30
78
ENDCHAR
STARTCHAR 00CF
ENCODING 207
SWIDTH 315 0
DWIDTH 6 0
BBX 6 16 0 0
BITMAP
CC
FC
D8
00
78
30
30
30
30
30
30
30
30
30
30
78
ENDCHAR
STARTCHAR 00D0
ENCODING 208
SWIDTH 631 0
DWIDTH 12 0
BBX 10 12 1 0
BITMAP
FE00
6380
6180
60C0
60C0
F8C0
60C0
60C0
60C0
6180
6300
FE00
ENDCHAR
STARTCHAR 00D1
ENCODING 209
SWIDTH 684 0
DWIDTH 13 0
BBX 11 16 1 0
BITMAP
1C80
3F00
2700
0000
E0E0
7040
7040
7840
5C40
4E40
4E40
4740
43C0
41C0
41C0
E0C0
ENDCHAR
STARTCHAR 00D2
ENCODING 210
SWIDTH 631 0
DWIDTH 12 0
BBX 10 16 1 0
BITMAP
3000
3800
0600
0000
1E00
2180
4180
40C0
C0C0
C0C0
C0C0
C0C0
C080
6080
6100
1E00
ENDCHAR
STARTCHAR 00D3
ENCODING 211
SWIDTH 631 0
DWIDTH 12 0
BBX 10 16 1 0
BITMAP
0200
0F00
1800
0000
1E00
2180
4180
40C0
C0C0
C0C0
C0C0
C0C0
C080
6080
6100
1E00
ENDCHAR
STARTCHAR 00D4
ENCODING 212
SWIDTH 631 0
DWIDTH 12 0
BBX 10 16 1 0
BITMAP
0C00
1E00
2100
0000
1E00
2180
4180
40C0
C0C0
C0C0
C0C0
C0C0
C080
6080
6100
1E00
ENDCHAR
STARTCHAR 00D5
ENCODING 213
SWIDTH 631 0
DWIDTH 12 0
BBX 10 16 1 0
BITMAP
1980
3F00
4600
0000
1E00
2180
4180
40C0
C0C0
C0C0
C0C0
C0C0
C080
6080
6100
1E00
ENDCHAR
STARTCHAR 00D6
ENCODING 214
SWIDTH 631 0
DWIDTH 12 0
BBX 10 16 1 0
BITMAP
3700
3700
3600
0000
1E00
2180
4180
40C0
C0C0
C0C0
C0C0
C0C0
C080
6080
6100
1E00
ENDCHAR
STARTCHAR 00D7
ENCODING 215
SWIDTH 421 0
DWIDTH 8 0
BBX 6 6 1 2
BITMAP
84
48
30
30
48
84
ENDCHAR
STARTCHAR 00D8
ENCODING 216
SWIDTH 631 0
DWIDTH 12 0
BBX 10 12 1 0
BITMAP
1EC0
2180
6180
43C0
C6C0
C4C0
C8C0
D8C0
F080
6180
6100
DE00
ENDCHAR
STARTCHAR 00D9
ENCODING 217
SWIDTH 684 0
DWIDTH 13 0
BBX 11 16 1 0
BITMAP
1000
3C00
0600
0000
F0E0
6040
6040
6040
6040
6040
6040
6040
6040
6080
3080
1F00
ENDCHAR
STARTCHAR 00DA
ENCODING 218
SWIDTH 684 0
DWIDTH 13 0
BBX 11 16 1 0
BITMAP
0300
0780
0C00
0000
F0E0
6040
6040
6040
6040
6040
6040
6040
6040
6080
3080
1F00
ENDCHAR
STARTCHAR 00DB
ENCODING 219
SWIDTH 684 0
DWIDTH 13 0
BBX 11 16 1 0
BITMAP
0C00
1E00
3100
0080
F0E0
6040
6040
6040
6040
6040
6040
6040
6040
6080
3080
1F00
ENDCHAR
STARTCHAR 00DC
ENCODING 220
SWIDTH 684 0
DWIDTH 13 0
BBX 11 16 1 0
BITMAP
1B00
3F00
3300
0000
F0E0
6040
6040
6040
6040
6040
6040
6040
6040
6080
3080
1F00
ENDCHAR
STARTCHAR 00DD
ENCODING 221
SWIDTH 631 0
DWIDTH 12 0
BBX 11 16 0 0
BITMAP
0100
0780
0C00
0000
F1E0
30C0
1880
1D80
0D00
0F00
0600
0600
0600
0600
0600
0F00
ENDCHAR
STARTCHAR 00DE
ENCODING 222
SWIDTH 578 0
DWIDTH 11 0
BBX 9 12 1 0
BITMAP
F800
6000
7E00
6300
6180
6180
6180
6180
7100
6E00
6000
F800
ENDCHAR
STARTCHAR 00DF
ENCODING 223
SWIDTH 631 0
DWIDTH 12 0
BBX 9 14 1 0
BITMAP
0E00
3300
2180
6180
6180
6700
6C00
6C00
6600
6300
6180
6880
6880
EF00
ENDCHAR
STARTCHAR 00E0
ENCODING 224
SWIDTH 473 0
DWIDTH 9 0
BBX 8 14 1 0
BITMAP
70
30
18
08
00
3C
66
C6
0E
7E
C6
C6
CF
76
ENDCHAR
STARTCHAR 00E1
ENCODING 225
SWIDTH 473 0
DWIDTH 9 0
BBX 8 14 1 0
BITMAP
0E
0C
18
30
00
3C
66
C6
0E
7E
C6
C6
CF
76
ENDCHAR
STARTCHAR 00E2
ENCODING 226
SWIDTH 473 0
DWIDTH 9 0
BBX 8 14 1 0
BITMAP
18
3C
6C
42
00
3C
66
C6
0E
7E
C6
C6
CF
76
ENDCHAR
STARTCHAR 00E3
ENCODING 227
SWIDTH 473 0
DWIDTH 9 0
BBX 8 13 1 0
BITMAP
72
7E
8C
00
3C
66
C6
0E
7E
C6
C6
CF
76
ENDCHAR
STARTCHAR 00E4
ENCODING 228
SWIDTH 473 0
DWIDTH 9 0
BBX 8 13 1 0
BITMAP
6C
6E
6C
00
3C
66
C6
0E
7E
C6
C6
CF
76
ENDCHAR
STARTCHAR 00E5
ENCODING 229
SWIDTH 473 0
DWIDTH 9 0
BBX 8 14 1 0
BITMAP
38
44
48
38
00
3C
66
C6
0E
7E
C6
C6
CF
76
ENDCHAR
STARTCHAR 00E6
ENCODING 230
SWIDTH 736 0
DWIDTH 14 0
BBX 12 9 1 0
BITMAP
1DC0
6F20
C630
A630
3FF0
4600
C710
FBE0
71C0
ENDCHAR
STARTCHAR 00E7
ENCODING 231
SWIDTH 473 0
DWIDTH 9 0
BBX 8 13 1 -4
BITMAP
3E
46
C4
C0
C0
C0
C2
7F
3C
10
0C
1C
30
ENDCHAR
STARTCHAR 00E8
ENCODING 232
SWIDTH 473 0
DWIDTH 9 0
BBX 7 14 1 0
BITMAP
70
30
18
08
00
3C
64
C6
C6
FE
C0
E2
7C
38
ENDCHAR
STARTCHAR 00E9
ENCODING 233
SWIDTH 473 0
DWIDTH 9 0
BBX 7 14 1 0
BITMAP
0E
0C
18
10
00
3C
64
C6
C6
FE
C0
E2
7C
38
ENDCHAR
STARTCHAR 00EA
ENCODING 234
SWIDTH 473 0
DWIDTH 9 0
BBX 7 14 1 0
BITMAP
18
3C
64
42
00
3C
64
C6
C6
FE
C0
E2
7C
38
ENDCHAR
STARTCHAR 00EB
ENCODING 235
SWIDTH 473 0
DWIDTH 9 0
BBX 7 13 1 0
BITMAP
6E
7E
6C
00
3C
64
C6
C6
FE
C0
E2
7C
38
ENDCHAR
STARTCHAR 00EC
ENCODING 236
SWIDTH 315 0
DWIDTH 6 0
BBX 5 14 0 0
BITMAP
E0
60
30
10
00
30
70
30
30
30
30
30
30
78
ENDCHAR
STARTCHAR 00ED
ENCODING 237
SWIDTH 315 0
DWIDTH 6 0
BBX 5 14 1 0
BITMAP
38
30
60
40
00
60
E0
60
60
60
60
60
60
F0
ENDCHAR
STARTCHAR 00EE
ENCODING 238
SWIDTH 315 0
DWIDTH 6 0
BBX 6 14 0 0
BITMAP
30
78
C8
84
00
30
70
30
30
30
30
30
30
78
ENDCHAR
STARTCHAR 00EF
ENCODING 239
SWIDTH 315 0
DWIDTH 6 0
BBX 6 13 0 0
BITMAP
DC
DC
D8
00
30
70
30
30
30
30
30
30
78
ENDCHAR
STARTCHAR 00F0
ENCODING 240
SWIDTH 526 0
DWIDTH 10 0
BBX 8 14 1 0
BITMAP
30
FF
1C
66
06
3F
47
C3
C3
C3
C3
C2
66
3C
ENDCHAR
STARTCHAR 00F1
ENCODING 241
SWIDTH 578 0
DWIDTH 11 0
BBX 9 13 1 0
BITMAP
3900
3F00
4E00
0000
6600
FF00
7300
6300
6300
6300
6300
6300
F780
ENDCHAR
STARTCHAR 00F2
ENCODING 242
SWIDTH 526 0
DWIDTH 10 0
BBX 8 14 1 0
BITMAP
30
70
18
0C
00
3C
46
C3
C3
C3
C3
C2
62
3C
ENDCHAR
STARTCHAR 00F3
ENCODING 243
SWIDTH 526 0
DWIDTH 10 0
BBX 8 14 1 0
BITMAP
06
0C
18
10
00
3C
46
C3
C3
C3
C3
C2
62
3C
ENDCHAR
STARTCHAR 00F4
ENCODING 244
SWIDTH 526 0
DWIDTH 10 0
BBX 8 14 1 0
BITMAP
18
3C
26
42
00
3C
46
C3
C3
C3
C3
C2
62
3C
ENDCHAR
STARTCHAR 00F5
ENCODING 245
SWIDTH 526 0
DWIDTH 10 0
BBX 8 13 1 0
BITMAP
39
7E
4C
00
3C
46
C3
C3
C3
C3
C2
62
3C
ENDCHAR
STARTCHAR 00F6
ENCODING 246
SWIDTH 526 0
DWIDTH 10 0
BBX 8 13 1 0
BITMAP
76
7E
6C
00
3C
46
C3
C3
C3
C3
C2
62
3C
ENDCHAR
STARTCHAR 00F7
ENCODING 247
SWIDTH 421 0
DWIDTH 8 0
BBX 8 7 0 2
BITMAP
08
08
00
7F
80
08
08
ENDCHAR
STARTCHAR 00F8
ENCODING 248
SWIDTH 526 0
DWIDTH 10 0
BBX 8 9 1 0
BITMAP
3F
66
47
CB
DB
D3
E2
66
FC
ENDCHAR
STARTCHAR 00F9
ENCODING 249
SWIDTH 578 0
DWIDTH 11 0
BBX 10 14 0 0
BITMAP
1800
3C00
0C00
0600
0000
E380
6180
6180
6180
6180
6180
6380
7FC0
3980
ENDCHAR
STARTCHAR 00FA
ENCODING 250
SWIDTH 578 0
DWIDTH 11 0
BBX 10 14 0 0
BITMAP
0300
0700
0400
0800
0000
E380
6180
6180
6180
6180
6180
6380
7FC0
3980
ENDCHAR
STARTCHAR 00FB
ENCODING 251
SWIDTH 578 0
DWIDTH 11 0
BBX 10 14 0 0
BITMAP
0C00
0E00
1B00
2100
0000
E380
6180
6180
6180
6180
6180
6380
7FC0
3980
ENDCHAR
STARTCHAR 00FC
ENCODING 252
SWIDTH 578 0
DWIDTH 11 0
BBX 10 13 0 0
BITMAP
1B00
3F00
3300
0000
E380
6180
6180
6180
6180
6180
6380
7FC0
3980
ENDCHAR
STARTCHAR 00FD
ENCODING 253
SWIDTH 526 0
DWIDTH 10 0
BBX 11 18 -1 -4
BITMAP
0380
0300
0600
0400
0000
79E0
3880
1880
1980
0D00
0D00
0E00
0600
0600
0400
0C00
7800
F000
ENDCHAR
STARTCHAR 00FE
ENCODING 254
SWIDTH 578 0
DWIDTH 11 0
BBX 9 18 1 -4
BITMAP
6000
E000
6000
6000
6000
6700
6F00
7180
6180
6180
6180
6100
7F00
6E00
6000
6000
6000
F800
ENDCHAR
STARTCHAR 00FF
ENCODING 255
SWIDTH 526 0
DWIDTH 10 0
BBX 11 17 -1 -4
BITMAP
1980
1F80
1B00
0000
79E0
3880
1880
1980
0D00
0D00
0E00
0600
0600
0400
0C00
7800
F000
ENDCHAR
STARTCHAR 0100
ENCODING 256
SWIDTH 631 0
DWIDTH 12 0
BBX 12 15 0 0
BITMAP
3FC0
3FC0
0000
0600
0E00
0F00
0B00
1B00
1380
1180
3F80
21C0
20C0
60E0
F1F0
ENDCHAR
STARTCHAR 0101
ENCODING 257
SWIDTH 473 0
DWIDTH 9 0
BBX 8 13 1 0
BITMAP
FF
FE
00
00
3C
66
C6
0E
7E
C6
C6
CF
76
ENDCHAR
STARTCHAR 0102
ENCODING 258
SWIDTH 631 0
DWIDTH 12 0
BBX 12 16 0 0
BITMAP
1080
1F80
0F00
0000
0600
0E00
0F00
0B00
1B00
1380
1180
3F80
21C0
20C0
60E0
F1F0
ENDCHAR
STARTCHAR 0103
ENCODING 259
SWIDTH 473 0
DWIDTH 9 0
BBX 8 13 1 0
BITMAP
42
FE
3C
00
3C
66
C6
0E
7E
C6
C6
CF
76
ENDCHAR
STARTCHAR 0106
ENCODING 262
SWIDTH 578 0
DWIDTH 11 0
BBX 9 16 1 0
BITMAP
0200
0F00
1800
0000
1F00
6380
4100
C000
C000
C000
C000
C000
C000
6180
7F00
3C00
ENDCHAR
STARTCHAR 0107
ENCODING 263
SWIDTH 473 0
DWIDTH 9 0
BBX 7 14 1 0
BITMAP
0E
0C
18
30
00
3E
46
C4
C0
C0
C0
C2
7C
38
ENDCHAR
STARTCHAR 0108
ENCODING 264
SWIDTH 578 0
DWIDTH 11 0
BBX 9 16 1 0
BITMAP
0C00
1E00
2100
0000
1F00
6380
4100
C000
C000
C000
C000
C000
C000
6180
7F00
3C00
ENDCHAR
STARTCHAR 0109
ENCODING 265
SWIDTH 473 0
DWIDTH 9 0
BBX 7 14 1 0
BITMAP
18
38
6C
42
00
3E
46
C4
C0
C0
C0
C2
7C
38
ENDCHAR
STARTCHAR 010A
ENCODING 266
SWIDTH 578 0
DWIDTH 11 0
BBX 9 16 1 0
BITMAP
0C00
0C00
0C00
0000
1F00
6380
4100
C000
C000
C000
C000
C000
C000
6180
7F00
3C00
ENDCHAR
STARTCHAR 010B
ENCODING 267
SWIDTH 473 0
DWIDTH 9 0
BBX 7 13 1 0
BITMAP
18
18
18
00
3E
46
C4
C0
C0
C0
C2
7C
38
ENDCHAR
STARTCHAR 010C
ENCODING 268
SWIDTH 578 0
DWIDTH 11 0
BBX 9 17 1 0
BITMAP
2100
3E00
1E00
0C00
0000
1F00
6380
4100
C000
C000
C000
C000
C000
C000
6180
7F00
3C00
ENDCHAR
STARTCHAR 010D
ENCODING 269
SWIDTH 473 0
DWIDTH 9 0
BBX 7 14 1 0
BITMAP
42
6C
38
18
00
3E
46
C4
C0
C0
C0
C2
7C
38
ENDCHAR
STARTCHAR 010E
ENCODING 270
SWIDTH 631 0
DWIDTH 12 0
BBX 10 17 1 0
BITMAP
6300
3600
1C00
1C00
0000
FE00
6380
6180
60C0
60C0
60C0
60C0
60C0
60C0
6180
6300
FE00
ENDCHAR
STARTCHAR 0110
ENCODING 272
SWIDTH 631 0
DWIDTH 12 0
BBX 10 12 1 0
BITMAP
FE00
6380
6180
60C0
60C0
F8C0
60C0
60C0
60C0
6180
6300
FE00
ENDCHAR
STARTCHAR 0111
ENCODING 273
SWIDTH 578 0
DWIDTH 11 0
BBX 10 14 1 0
BITMAP
0300
0700
0300
1FC0
0300
3F00
4300
C300
C300
C300
C300
E300
7F80
3B00
ENDCHAR
STARTCHAR 0112
ENCODING 274
SWIDTH 526 0
DWIDTH 10 0
BBX 10 15 0 0
BITMAP
7F80
7F80
0000
FF80
3080
3080
3000
3000
3F00
3200
3000
3000
3040
3080
FF80
ENDCHAR
STARTCHAR 0113
ENCODING 275
SWIDTH 473 0
DWIDTH 9 0
BBX 8 13 1 0
BITMAP
FF
FF
00
00
3C
64
C6
C6
FE
C0
E2
7C
38
ENDCHAR
STARTCHAR 0114
ENCODING 276
SWIDTH 526 0
DWIDTH 10 0
BBX 10 16 0 0
BITMAP
2100
3F00
1E00
0000
FF80
3080
3080
3000
3000
3F00
3200
3000
3000
3040
3080
FF80
ENDCHAR
STARTCHAR 0115
ENCODING 277
SWIDTH 473 0
DWIDTH 9 0
BBX 7 13 1 0
BITMAP
42
7E
3C
00
3C
64
C6
C6
FE
C0
E2
7C
38
ENDCHAR
STARTCHAR 0116
ENCODING 278
SWIDTH 526 0
DWIDTH 10 0
BBX 10 16 0 0
BITMAP
0C00
0E00
0C00
0000
FF80
3080
3080
3000
3000
3F00
3200
3000
3000
3040
3080
FF80
ENDCHAR
STARTCHAR 0117
ENCODING 279
SWIDTH 473 0
DWIDTH 9 0
BBX 7 13 1 0
BITMAP
18
1C
18
00
3C
64
C6
C6
FE
C0
E2
7C
38
ENDCHAR
STARTCHAR 011A
ENCODING 282
SWIDTH 526 0
DWIDTH 10 0
BBX 10 17 0 0
BITMAP
2100
3E00
1E00
0C00
0000
FF80
3080
3080
3000
3000
3F00
3200
3000
3000
3040
3080
FF80
ENDCHAR
STARTCHAR 011B
ENCODING 283
SWIDTH 473 0
DWIDTH 9 0
BBX 7 14 1 0
BITMAP
42
64
3C
18
00
3C
64
C6
C6
FE
C0
E2
7C
38
ENDCHAR
STARTCHAR 011C
ENCODING 284
SWIDTH 578 0
DWIDTH 11 0
BBX 10 16 1 0
BITMAP
0C00
1E00
2100
0000
1F80
2180
4100
4000
C000
C000
C000
C3C0
C180
4180
6180
1F00
ENDCHAR
STARTCHAR 011D
ENCODING 285
SWIDTH 526 0
DWIDTH 10 0
BBX 10 18 0 -4
BITMAP
0C00
1E00
3200
2100
0000
3CC0
4300
C300
C300
E200
3C00
7000
7C00
7F80
C380
C180
C100
3E00
ENDCHAR
STARTCHAR 011E
ENCODING 286
SWIDTH 578 0
DWIDTH 11 0
BBX 10 16 1 0
BITMAP
2100
3F00
1E00
0000
1F80
2180
4100
4000
C000
C000
C000
C3C0
C180
4180
6180
1F00
ENDCHAR
STARTCHAR 011F
ENCODING 287
SWIDTH 526 0
DWIDTH 10 0
BBX 10 17 0 -4
BITMAP
2100
3F00
1E00
0000
3CC0
4300
C300
C300
E200
3C00
7000
7C00
7F80
C380
C180
C100
3E00
ENDCHAR
STARTCHAR 0120
ENCODING 288
SWIDTH 578 0
DWIDTH 11 0
BBX 10 16 1 0
BITMAP
0C00
0E00
0C00
0000
1F80
2180
4100
4000
C000
C000
C000
C3C0
C180
4180
6180
1F00
ENDCHAR
STARTCHAR 0121
ENCODING 289
SWIDTH 526 0
DWIDTH 10 0
BBX 10 17 0 -4
BITMAP
0C00
0C00
0C00
0000
3CC0
4300
C300
C300
E200
3C00
7000
7C00
7F80
C380
C180
C100
3E00
ENDCHAR
STARTCHAR 0124
ENCODING 292
SWIDTH 684 0
DWIDTH 13 0
BBX 11 16 1 0
BITMAP
0C00
1E00
3100
0080
F1E0
60C0
60C0
60C0
60C0
7FC0
60C0
60C0
60C0
60C0
60C0
F1E0
ENDCHAR
STARTCHAR 0125
ENCODING 293
SWIDTH 578 0
DWIDTH 11 0
BBX 9 18 1 0
BITMAP
1C00
3600
4100
0000
6000
E000
6000
6000
6000
6600
7F00
7300
6300
6300
6300
6300
6300
F780
ENDCHAR
STARTCHAR 0128
ENCODING 296
SWIDTH 315 0
DWIDTH 6 0
BBX 8 16 -1 0
BITMAP
31
7E
8C
00
3C
18
18
18
18
18
18
18
18
18
18
3C
ENDCHAR
STARTCHAR 0129
ENCODING 297
SWIDTH 315 0
DWIDTH 6 0
BBX 8 13 -1 0
BITMAP
33
7E
8C
00
18
38
18
18
18
18
18
18
3C
ENDCHAR
STARTCHAR 012A
ENCODING 298
SWIDTH 315 0
DWIDTH 6 0
BBX 6 16 0 0
BITMAP
7C
FC
00
00
78
30
30
30
30
30
30
30
30
30
30
78
ENDCHAR
STARTCHAR 012B
ENCODING 299
SWIDTH 315 0
DWIDTH 6 0
BBX 6 13 0 0
BITMAP
FC
FC
00
00
30
70
30
30
30
30
30
30
78
ENDCHAR
STARTCHAR 012C
ENCODING 300
SWIDTH 315 0
DWIDTH 6 0
BBX 6 16 0 0
BITMAP
84
FC
78
00
78
30
30
30
30
30
30
30
30
30
30
78
ENDCHAR
STARTCHAR 012D
ENCODING 301
SWIDTH 315 0
DWIDTH 6 0
BBX 6 13 0 0
BITMAP
84
FC
78
00
30
70
30
30
30
30
30
30
78
ENDCHAR
STARTCHAR 0130
ENCODING 304
SWIDTH 315 0
DWIDTH 6 0
BBX 4 16 1 0
BITMAP
60
70
60
00
F0
60
60
60
60
60
60
60
60
60
60
F0
ENDCHAR
STARTCHAR 0131
ENCODING 305
SWIDTH 315 0
DWIDTH 6 0
BBX 4 9 1 0
BITMAP
60
E0
60
60
60
60
60
60
F0
ENDCHAR
STARTCHAR 0132
ENCODING 306
SWIDTH 684 0
DWIDTH 13 0
BBX 11 16 1 -4
BITMAP
F7E0
6180
6180
6180
6180
6180
6180
6180
6180
6180
6180
F180
0180
0980
1F00
1E00
ENDCHAR
STARTCHAR 0133
ENCODING 307
SWIDTH 578 0
DWIDTH 11 0
BBX 9 16 1 -4
BITMAP
3380
7300
0000
6700
EF00
6300
6300
6300
6300
6300
6300
F300
0200
2600
3C00
7800
ENDCHAR
STARTCHAR 0139
ENCODING 313
SWIDTH 526 0
DWIDTH 10 0
BBX 8 16 1 0
BITMAP
04
1E
30
00
F0
60
60
60
60
60
60
60
60
61
61
FF
ENDCHAR
STARTCHAR 013A
ENCODING 314
SWIDTH 315 0
DWIDTH 6 0
BBX 6 19 0 0
BITMAP
08
1C
60
00
00
30
F0
30
30
30
30
30
30
30
30
30
30
30
F8
ENDCHAR
STARTCHAR 0141
ENCODING 321
SWIDTH 526 0
DWIDTH 10 0
BBX 8 12 1 0
BITMAP
F0
60
60
60
6C
78
E0
E0
60
61
61
FF
ENDCHAR
STARTCHAR 0142
ENCODING 322
SWIDTH 315 0
DWIDTH 6 0
BBX 6 14 0 0
BITMAP
30
F0
30
30
30
3C
38
70
B0
30
30
30
30
F8
ENDCHAR
STARTCHAR 0143
ENCODING 323
SWIDTH 684 0
DWIDTH 13 0
BBX 11 16 1 0
BITMAP
0300
0780
1800
0000
E0E0
7040
7040
7840
5C40
4E40
4E40
4740
43C0
41C0
41C0
E0C0
ENDCHAR
STARTCHAR 0144
ENCODING 324
SWIDTH 578 0
DWIDTH 11 0
BBX 9 14 1 0
BITMAP
0600
0F00
0C00
1800
0000
6600
FF00
7300
6300
6300
6300
6300
6300
F780
ENDCHAR
STARTCHAR 0147
ENCODING 327
SWIDTH 684 0
DWIDTH 13 0
BBX 11 17 1 0
BITMAP
2100
1B00
0E00
0C00
0000
E0E0
7040
7040
7840
5C40
4E40
4E40
4740
43C0
41C0
41C0
E0C0
ENDCHAR
STARTCHAR 0148
ENCODING 328
SWIDTH 578 0
DWIDTH 11 0
BBX 9 14 1 0
BITMAP
2100
7600
1C00
0C00
0000
6600
FF00
7300
6300
6300
6300
6300
6300
F780
ENDCHAR
STARTCHAR 014A
ENCODING 330
SWIDTH 631 0
DWIDTH 12 0
BBX 11 16 0 -4
BITMAP
31C0
F7E0
3C60
3860
3060
3060
3060
3060
3060
3060
3060
F860
0060
0040
0C80
1F00
ENDCHAR
STARTCHAR 014B
ENCODING 331
SWIDTH 578 0
DWIDTH 11 0
BBX 8 13 1 -4
BITMAP
66
FF
73
63
63
63
63
63
F3
03
26
7E
38
ENDCHAR
STARTCHAR 014C
ENCODING 332
SWIDTH 631 0
DWIDTH 12 0
BBX 10 15 1 0
BITMAP
7F80
7F80
0000
1E00
2180
4180
40C0
C0C0
C0C0
C0C0
C0C0
C080
6080
6100
1E00
ENDCHAR
STARTCHAR 014D
ENCODING 333
SWIDTH 526 0
DWIDTH 10 0
BBX 8 13 1 0
BITMAP
7F
FF
00
00
3C
46
C3
C3
C3
C3
C2
62
3C
ENDCHAR
STARTCHAR 014E
ENCODING 334
SWIDTH 631 0
DWIDTH 12 0
BBX 10 16 1 0
BITMAP
2100
3F00
1E00
0000
1E00
2180
4180
40C0
C0C0
C0C0
C0C0
C0C0
C080
6080
6100
1E00
ENDCHAR
STARTCHAR 014F
ENCODING 335
SWIDTH 526 0
DWIDTH 10 0
BBX 8 13 1 0
BITMAP
42
7E
3C
00
3C
46
C3
C3
C3
C3
C2
62
3C
ENDCHAR
STARTCHAR 0150
ENCODING 336
SWIDTH 631 0
DWIDTH 12 0
BBX 10 17 1 0
BITMAP
0D80
1B00
1B00
1200
0000
1E00
2180
4180
40C0
C0C0
C0C0
C0C0
C0C0
C080
6080
6100
1E00
ENDCHAR
STARTCHAR 0151
ENCODING 337
SWIDTH 526 0
DWIDTH 10 0
BBX 8 14 1 0
BITMAP
1B
1B
36
24
00
3C
46
C3
C3
C3
C3
C2
62
3C
ENDCHAR
STARTCHAR 0152
ENCODING 338
SWIDTH 842 0
DWIDTH 16 0
BBX 14 12 1 0
BITMAP
1FFC
2184
4184
4180
C180
C1F8
C190
C180
C180
6184
7384
1FFC
ENDCHAR
STARTCHAR 0153
ENCODING 339
SWIDTH 842 0
DWIDTH 16 0
BBX 14 9 1 0
BITMAP
3C70
4788
430C
C30C
C3FC
C300
C388
67FC
3CF0
ENDCHAR
STARTCHAR 0154
ENCODING 340
SWIDTH 631 0
DWIDTH 12 0
BBX 11 16 1 0
BITMAP
0600
0E00
3000
0000
FE00
6380
6180
6180
6180
7F00
7E00
6600
6300
6380
61C0
F1E0
ENDCHAR
STARTCHAR 0155
ENCODING 341
SWIDTH 421 0
DWIDTH 8 0
BBX 8 14 0 0
BITMAP
06
0F
0C
18
00
37
FF
39
31
30
30
30
30
FC
ENDCHAR
STARTCHAR 0158
ENCODING 344
SWIDTH 631 0
DWIDTH 12 0
BBX 11 17 1 0
BITMAP
4200
3600
3C00
1800
0000
FE00
6380
6180
6180
6180
7F00
7E00
6600
6300
6380
61C0
F1E0
ENDCHAR
STARTCHAR 0159
ENCODING 345
SWIDTH 421 0
DWIDTH 8 0
BBX 8 14 0 0
BITMAP
21
76
1C
0C
00
37
FF
39
31
30
30
30
30
FC
ENDCHAR
STARTCHAR 015A
ENCODING 346
SWIDTH 526 0
DWIDTH 10 0
BBX 8 16 1 0
BITMAP
06
0E
30
00
3E
C6
80
80
F0
7C
1E
07
03
83
C2
FC
ENDCHAR
STARTCHAR 015B
ENCODING 347
SWIDTH 421 0
DWIDTH 8 0
BBX 6 14 1 0
BITMAP
1C
18
30
20
00
F0
98
90
E0
78
1C
84
C4
F8
ENDCHAR
STARTCHAR 015C
ENCODING 348
SWIDTH 526 0
DWIDTH 10 0
BBX 8 16 1 0
BITMAP
18
3C
42
00
3E
C6
80
80
F0
7C
1E
07
03
83
C2
FC
ENDCHAR
STARTCHAR 015D
ENCODING 349
SWIDTH 421 0
DWIDTH 8 0
BBX 6 14 1 0
BITMAP
30
78
C8
84
00
F0
98
90
E0
78
1C
84
C4
F8
ENDCHAR
STARTCHAR 0160
ENCODING 352
SWIDTH 526 0
DWIDTH 10 0
BBX 8 17 1 0
BITMAP
42
7C
3C
18
00
3E
C6
80
80
F0
7C
1E
07
03
83
C2
FC
ENDCHAR
STARTCHAR 0161
ENCODING 353
SWIDTH 421 0
DWIDTH 8 0
BBX 6 14 1 0
BITMAP
84
C8
78
30
00
F0
98
90
E0
78
1C
84
C4
F8
ENDCHAR
STARTCHAR 0164
ENCODING 356
SWIDTH 578 0
DWIDTH 11 0
BBX 10 17 0 0
BITMAP
2100
1B00
0E00
0C00
0000
FFC0
8C40
8C40
0C00
0C00
0C00
0C00
0C00
0C00
0C00
0C00
1E00
ENDCHAR
STARTCHAR 0168
ENCODING 360
SWIDTH 684 0
DWIDTH 13 0
BBX 11 16 1 0
BITMAP
1C80
3F00
2700
0000
F0E0
6040
6040
6040
6040
6040
6040
6040
6040
6080
3080
1F00
ENDCHAR
STARTCHAR 0169
ENCODING 361
SWIDTH 578 0
DWIDTH 11 0
BBX 10 13 0 0
BITMAP
1C80
3F00
2700
0000
E380
6180
6180
6180
6180
6180
6380
7FC0
3980
ENDCHAR
STARTCHAR 016A
ENCODING 362
SWIDTH 684 0
DWIDTH 13 0
BBX 11 15 1 0
BITMAP
3F80
3F80
0000
F0E0
6040
6040
6040
6040
6040
6040
6040
6040
6080
3080
1F00
ENDCHAR
STARTCHAR 016B
ENCODING 363
SWIDTH 578 0
DWIDTH 11 0
BBX 10 13 0 0
BITMAP
3F80
3F80
4000
0000
E380
6180
6180
6180
6180
6180
6380
7FC0
3980
ENDCHAR
STARTCHAR 016C
ENCODING 364
SWIDTH 684 0
DWIDTH 13 0
BBX 11 16 1 0
BITMAP
2180
1F00
0E00
0000
F0E0
6040
6040
6040
6040
6040
6040
6040
6040
6080
3080
1F00
ENDCHAR
STARTCHAR 016D
ENCODING 365
SWIDTH 578 0
DWIDTH 11 0
BBX 10 13 0 0
BITMAP
2180
1F00
0E00
0000
E380
6180
6180
6180
6180
6180
6380
7FC0
3980
ENDCHAR
STARTCHAR 016E
ENCODING 366
SWIDTH 684 0
DWIDTH 13 0
BBX 11 17 1 0
BITMAP
0E00
1200
1200
0C00
0000
F0E0
6040
6040
6040
6040
6040
6040
6040
6040
6080
3080
1F00
ENDCHAR
STARTCHAR 016F
ENCODING 367
SWIDTH 578 0
DWIDTH 11 0
BBX 10 14 0 0
BITMAP
0E00
1200
1200
0C00
0000
E380
6180
6180
6180
6180
6180
6380
7FC0
3980
ENDCHAR
STARTCHAR 0170
ENCODING 368
SWIDTH 684 0
DWIDTH 13 0
BBX 11 17 1 0
BITMAP
0D80
0D80
0900
1200
0000
F0E0
6040
6040
6040
6040
6040
6040
6040
6040
6080
3080
1F00
ENDCHAR
STARTCHAR 0171
ENCODING 369
SWIDTH 578 0
DWIDTH 11 0
BBX 10 14 0 0
BITMAP
0D80
0D80
1B00
1200
0000
E380
6180
6180
6180
6180
6180
6380
7FC0
3980
ENDCHAR
STARTCHAR 0174
ENCODING 372
SWIDTH 842 0
DWIDTH 16 0
BBX 16 16 0 0
BITMAP
0180
03C0
0420
0000
F88F
3186
31C4
31C4
33C4
3A6C
1A6C
1E78
1C38
1C38
0C18
0810
ENDCHAR
STARTCHAR 0175
ENCODING 373
SWIDTH 736 0
DWIDTH 14 0
BBX 14 14 0 0
BITMAP
0300
0780
04C0
0840
0000
F13C
6318
3390
3390
35B0
3CE0
1CE0
1860
1840
ENDCHAR
STARTCHAR 0176
ENCODING 374
SWIDTH 631 0
DWIDTH 12 0
BBX 11 16 0 0
BITMAP
0600
0F00
1180
0000
F1E0
30C0
1880
1D80
0D00
0F00
0600
0600
0600
0600
0600
0F00
ENDCHAR
STARTCHAR 0177
ENCODING 375
SWIDTH 526 0
DWIDTH 10 0
BBX 11 18 -1 -4
BITMAP
0600
0F00
0980
1080
0000
79E0
3880
1880
1980
0D00
0D00
0E00
0600
0600
0400
0C00
7800
F000
ENDCHAR
STARTCHAR 0178
ENCODING 376
SWIDTH 631 0
DWIDTH 12 0
BBX 11 16 0 0
BITMAP
1B00
1B80
1B00
0000
F1E0
30C0
1880
1D80
0D00
0F00
0600
0600
0600
0600
0600
0F00
ENDCHAR
STARTCHAR 0179
ENCODING 377
SWIDTH 526 0
DWIDTH 10 0
BBX 10 16 0 0
BITMAP
0300
0780
0800
0000
7FC0
4380
4300
0700
0600
0E00
1C00
1800
3800
3040
70C0
FFC0
ENDCHAR
STARTCHAR 017A
ENCODING 378
SWIDTH 473 0
DWIDTH 9 0
BBX 7 14 1 0
BITMAP
0E
0C
18
30
00
FE
8E
9C
18
38
30
62
E2
FE
ENDCHAR
STARTCHAR 017B
ENCODING 379
SWIDTH 526 0
DWIDTH 10 0
BBX 10 16 0 0
BITMAP
0600
0E00
0C00
0000
7FC0
4380
4300
0700
0600
0E00
1C00
1800
3800
3040
70C0
FFC0
ENDCHAR
STARTCHAR 017C
ENCODING 380
SWIDTH 473 0
DWIDTH 9 0
BBX 7 13 1 0
BITMAP
18
18
38
00
FE
8E
9C
18
38
30
62
E2
FE
ENDCHAR
STARTCHAR 017D
ENCODING 381
SWIDTH 526 0
DWIDTH 10 0
BBX 10 17 0 0
BITMAP
2100
1B80
0E00
0C00
0000
7FC0
4380
4300
0700
0600
0E00
1C00
1800
3800
3040
70C0
FFC0
ENDCHAR
STARTCHAR 017E
ENCODING 382
SWIDTH 473 0
DWIDTH 9 0
BBX 7 14 1 0
BITMAP
42
6C
38
18
00
FE
8E
9C
18
38
30
62
E2
FE
ENDCHAR
STARTCHAR 0181
ENCODING 385
SWIDTH 736 0
DWIDTH 14 0
BBX 13 12 0 0
BITMAP
3FC0
6C70
CC30
CC30
8C60
0FE0
0C38
0C18
0C18
0C18
0C38
1FE0
ENDCHAR
STARTCHAR 0186
ENCODING 390
SWIDTH 578 0
DWIDTH 11 0
BBX 10 12 0 0
BITMAP
3E00
C300
0180
00C0
00C0
00C0
00C0
40C0
C080
C080
C100
7E00
ENDCHAR
STARTCHAR 0189
ENCODING 393
SWIDTH 631 0
DWIDTH 12 0
BBX 10 12 1 0
BITMAP
FE00
6380
6180
60C0
60C0
F8C0
60C0
60C0
60C0
6180
6300
FE00
ENDCHAR
STARTCHAR 018A
ENCODING 394
SWIDTH 789 0
DWIDTH 15 0
BBX 14 12 0 0
BITMAP
3FE0
6C30
CC18
CC0C
8C0C
0C0C
0C0C
0C0C
0C0C
0C18
0C30
1FE0
ENDCHAR
STARTCHAR 018E
ENCODING 398
SWIDTH 526 0
DWIDTH 10 0
BBX 9 12 1 0
BITMAP
7F80
8600
8600
0600
0600
7E00
0600
0600
0600
8600
8600
FF80
ENDCHAR
STARTCHAR 0190
ENCODING 400
SWIDTH 526 0
DWIDTH 10 0
BBX 8 12 1 0
BITMAP
3F
63
42
40
60
7C
60
C0
C0
C1
FE
7C
ENDCHAR
STARTCHAR 0192
ENCODING 402
SWIDTH 315 0
DWIDTH 6 0
BBX 10 18 -2 -4
BITMAP
03C0
04C0
0C00
0C00
0C00
1F80
0C00
0C00
0C00
0C00
0C00
0C00
0C00
0C00
0C00
8800
F800
E000
ENDCHAR
STARTCHAR 0197
ENCODING 407
SWIDTH 315 0
DWIDTH 6 0
BBX 6 12 0 0
BITMAP
78
30
30
30
30
7C
B0
30
30
30
30
78
ENDCHAR
STARTCHAR 0198
ENCODING 408
SWIDTH 631 0
DWIDTH 12 0
BBX 11 12 1 0
BITMAP
F1C0
63C0
6740
6640
6C80
7800
7C00
6E00
6700
6380
61C0
F0E0
ENDCHAR
STARTCHAR 0199
ENCODING 409
SWIDTH 526 0
DWIDTH 10 0
BBX 10 14 1 0
BITMAP
0F00
3380
2000
6000
6000
6780
6300
6C00
7800
7C00
6E00
6600
6300
F3C0
ENDCHAR
STARTCHAR 019A
ENCODING 410
SWIDTH 368 0
DWIDTH 7 0
BBX 6 14 1 0
BITMAP
70
B0
30
30
30
30
FC
30
30
30
30
30
30
F8
ENDCHAR
STARTCHAR 019D
ENCODING 413
SWIDTH 684 0
DWIDTH 13 0
BBX 15 16 -3 -4
BITMAP
0E0E
0704
0704
0784
05C4
04E4
04E4
0474
043C
043C
041C
040C
0400
4400
F800
7000
ENDCHAR
STARTCHAR 019F
ENCODING 415
SWIDTH 631 0
DWIDTH 12 0
BBX 10 12 1 0
BITMAP
1E00
2380
6180
40C0
C0C0
FFC0
C0C0
C0C0
C080
6180
7100
1E00
ENDCHAR
STARTCHAR 01A0
ENCODING 416
SWIDTH 631 0
DWIDTH 12 0
BBX 11 14 1 0
BITMAP
0040
00E0
1EC0
2180
4180
40C0
C0C0
C0C0
C0C0
C0C0
C080
6080
6100
1E00
ENDCHAR
STARTCHAR 01A1
ENCODING 417
SWIDTH 631 0
DWIDTH 12 0
BBX 10 11 1 0
BITMAP
00C0
01C0
1EC0
6700
4300
C300
C300
C300
C200
6200
3C00
ENDCHAR
STARTCHAR 01A9
ENCODING 425
SWIDTH 526 0
DWIDTH 10 0
BBX 10 12 0 0
BITMAP
7F80
7080
3880
1800
1C00
0C00
0C00
1800
1040
2040
7FC0
FFC0
ENDCHAR
STARTCHAR 01AA
ENCODING 426
SWIDTH 368 0
DWIDTH 7 0
BBX 8 18 1 -4
BITMAP
70
90
98
F8
D8
18
10
30
30
30
30
30
30
30
30
33
33
1E
ENDCHAR
STARTCHAR 01AF
ENCODING 431
SWIDTH 736 0
DWIDTH 14 0
BBX 13 14 1 0
BITMAP
0018
0038
F0F0
6060
6040
6040
6040
6040
6040
6040
6040
6040
3080
1F00
ENDCHAR
STARTCHAR 01B0
ENCODING 432
SWIDTH 684 0
DWIDTH 13 0
BBX 12 11 1 0
BITMAP
0030
0070
E720
63C0
6300
6300
6300
6300
6300
7F80
3B00
ENDCHAR
STARTCHAR 01B3
ENCODING 435
SWIDTH 736 0
DWIDTH 14 0
BBX 13 13 0 0
BITMAP
0030
F078
30E8
38C8
1D88
0D80
0F00
0600
0600
0600
0600
0600
0F00
ENDCHAR
STARTCHAR 01B4
ENCODING 436
SWIDTH 526 0
DWIDTH 10 0
BBX 14 16 -1 -4
BITMAP
001C
003C
0060
7840
38C0
1880
1980
0D00
0D00
0F00
0600
0600
0400
0C00
7800
F000
ENDCHAR
STARTCHAR 01B7
ENCODING 439
SWIDTH 526 0
DWIDTH 10 0
BBX 8 12 1 0
BITMAP
FF
86
8C
1C
18
3E
47
03
03
83
C2
7C
ENDCHAR
STARTCHAR 01CD
ENCODING 461
SWIDTH 631 0
DWIDTH 12 0
BBX 12 17 0 0
BITMAP
1080
1B00
0F00
0600
0000
0600
0E00
0F00
0B00
1B00
1380
1180
3F80
21C0
20C0
60E0
F1F0
ENDCHAR
STARTCHAR 01CE
ENCODING 462
SWIDTH 473 0
DWIDTH 9 0
BBX 8 14 1 0
BITMAP
42
6C
3C
18
00
3C
66
C6
0E
7E
C6
C6
CF
76
ENDCHAR
STARTCHAR 01CF
ENCODING 463
SWIDTH 315 0
DWIDTH 6 0
BBX 6 17 0 0
BITMAP
84
FC
78
30
00
78
30
30
30
30
30
30
30
30
30
30
78
ENDCHAR
STARTCHAR 01D0
ENCODING 464
SWIDTH 315 0
DWIDTH 6 0
BBX 6 14 0 0
BITMAP
84
C8
78
30
00
30
70
30
30
30
30
30
30
78
ENDCHAR
STARTCHAR 01D1
ENCODING 465
SWIDTH 631 0
DWIDTH 12 0
BBX 10 17 1 0
BITMAP
2100
3200
1E00
0C00
0000
1E00
2180
4180
40C0
C0C0
C0C0
C0C0
C0C0
C080
6080
6100
1E00
ENDCHAR
STARTCHAR 01D2
ENCODING 466
SWIDTH 526 0
DWIDTH 10 0
BBX 8 14 1 0
BITMAP
42
36
3C
18
00
3C
46
C3
C3
C3
C3
C2
62
3C
ENDCHAR
STARTCHAR 01D3
ENCODING 467
SWIDTH 684 0
DWIDTH 13 0
BBX 11 17 1 0
BITMAP
3100
1B80
0E00
0C00
0000
F0E0
6040
6040
6040
6040
6040
6040
6040
6040
6080
3080
1F00
ENDCHAR
STARTCHAR 01D4
ENCODING 468
SWIDTH 578 0
DWIDTH 11 0
BBX 10 14 0 0
BITMAP
2100
1B80
0E00
0C00
0000
E380
6180
6180
6180
6180
6180
6380
7FC0
3980
ENDCHAR
STARTCHAR 01D5
ENCODING 469
SWIDTH 684 0
DWIDTH 13 0
BBX 11 18 1 0
BITMAP
3F80
3F80
1B00
3F00
3300
0000
F0E0
6040
6040
6040
6040
6040
6040
6040
6040
6080
3080
1F00
ENDCHAR
STARTCHAR 01D6
ENCODING 470
SWIDTH 578 0
DWIDTH 11 0
BBX 10 16 0 0
BITMAP
3F80
7F80
0000
1B00
3F00
3300
0000
E380
6180
6180
6180
6180
6180
6380
7FC0
3980
ENDCHAR
STARTCHAR 01D7
ENCODING 471
SWIDTH 684 0
DWIDTH 13 0
BBX 11 19 1 0
BITMAP
0300
0780
0800
1B00
3F00
3300
0000
F0E0
6040
6040
6040
6040
6040
6040
6040
6040
6080
3080
1F00
ENDCHAR
STARTCHAR 01D8
ENCODING 472
SWIDTH 578 0
DWIDTH 11 0
BBX 10 17 0 0
BITMAP
0700
0600
0C00
0800
1B00
3F00
3300
0000
E380
6180
6180
6180
6180
6180
6380
7FC0
3980
ENDCHAR
STARTCHAR 01D9
ENCODING 473
SWIDTH 684 0
DWIDTH 13 0
BBX 11 20 1 0
BITMAP
3100
1B80
0E00
0C00
1B00
3F00
3300
0000
F0E0
6040
6040
6040
6040
6040
6040
6040
6040
6080
3080
1F00
ENDCHAR
STARTCHAR 01DA
ENCODING 474
SWIDTH 578 0
DWIDTH 11 0
BBX 10 17 0 0
BITMAP
3180
1F00
0E00
0400
1B00
3F00
3300
0000
E380
6180
6180
6180
6180
6180
6380
7FC0
3980
ENDCHAR
STARTCHAR 01DB
ENCODING 475
SWIDTH 684 0
DWIDTH 13 0
BBX 11 19 1 0
BITMAP
1000
3C00
0600
1B00
3F00
3300
0000
F0E0
6040
6040
6040
6040
6040
6040
6040
6040
6080
3080
1F00
ENDCHAR
STARTCHAR 01DC
ENCODING 476
SWIDTH 578 0
DWIDTH 11 0
BBX 10 17 0 0
BITMAP
3800
0C00
0400
0600
1B00
3F00
3300
0000
E380
6180
6180
6180
6180
6180
6380
7FC0
3980
ENDCHAR
STARTCHAR 01DD
ENCODING 477
SWIDTH 473 0
DWIDTH 9 0
BBX 7 9 1 0
BITMAP
38
7C
8E
06
7E
C6
C6
CC
78
ENDCHAR
STARTCHAR 01DE
ENCODING 478
SWIDTH 631 0
DWIDTH 12 0
BBX 12 18 0 0
BITMAP
3FC0
3FC0
1B00
1B80
1B00
0000
0600
0E00
0F00
0B00
1B00
1380
1180
3F80
21C0
20C0
60E0
F1F0
ENDCHAR
STARTCHAR 01DF
ENCODING 479
SWIDTH 473 0
DWIDTH 9 0
BBX 8 16 1 0
BITMAP
FF
FE
00
6C
6E
6C
00
3C
66
C6
0E
7E
C6
C6
CF
76
ENDCHAR
STARTCHAR 01E0
ENCODING 480
SWIDTH 631 0
DWIDTH 12 0
BBX 12 18 0 0
BITMAP
3FC0
3FC0
0600
0600
0600
0000
0600
0E00
0F00
0B00
1B00
1380
1180
3F80
21C0
20C0
60E0
F1F0
ENDCHAR
STARTCHAR 01E1
ENCODING 481
SWIDTH 473 0
DWIDTH 9 0
BBX 8 16 1 0
BITMAP
FF
FE
00
18
18
18
00
3C
66
C6
0E
7E
C6
C6
CF
76
ENDCHAR
STARTCHAR 01E2
ENCODING 482
SWIDTH 789 0
DWIDTH 15 0
BBX 15 15 0 0
BITMAP
07F8
07F8
0000
1FFC
0584
0584
0D80
0980
1FF8
1190
1180
3180
2182
6184
F3FC
ENDCHAR
STARTCHAR 01E3
ENCODING 483
SWIDTH 736 0
DWIDTH 14 0
BBX 12 13 1 0
BITMAP
1FC0
3FC0
0000
0000
1DC0
6F20
C630
A630
3FF0
4600
C710
FBE0
71C0
ENDCHAR
STARTCHAR 01E6
ENCODING 486
SWIDTH 578 0
DWIDTH 11 0
BBX 10 17 1 0
BITMAP
2100
1B00
1E00
0C00
0000
1F80
2180
4100
4000
C000
C000
C000
C3C0
C180
4180
6180
1F00
ENDCHAR
STARTCHAR 01E7
ENCODING 487
SWIDTH 526 0
DWIDTH 10 0
BBX 10 18 0 -4
BITMAP
2100
3200
1E00
0C00
0000
3CC0
4300
C300
C300
E200
3C00
7000
7C00
7F80
C380
C180
C100
3E00
ENDCHAR
STARTCHAR 01E8
ENCODING 488
SWIDTH 631 0
DWIDTH 12 0
BBX 11 17 1 0
BITMAP
2100
3600
1E00
0C00
0000
F3C0
6300
6300
6600
6C00
7800
7C00
6E00
6700
6300
6180
F1E0
ENDCHAR
STARTCHAR 01E9
ENCODING 489
SWIDTH 526 0
DWIDTH 10 0
BBX 10 19 1 0
BITMAP
6300
3E00
1C00
0800
0000
6000
E000
6000
6000
6000
6780
6300
6400
6800
7C00
6E00
6600
6300
F3C0
ENDCHAR
STARTCHAR 01EE
ENCODING 494
SWIDTH 526 0
DWIDTH 10 0
BBX 8 17 1 0
BITMAP
42
26
3C
18
00
FF
86
8C
1C
18
3E
47
03
03
83
C2
7C
ENDCHAR
STARTCHAR 01EF
ENCODING 495
SWIDTH 473 0
DWIDTH 9 0
BBX 8 18 0 -4
BITMAP
62
37
1C
18
00
7F
46
46
0C
1C
18
3E
07
03
03
43
E2
7C
ENDCHAR
STARTCHAR 01F4
ENCODING 500
SWIDTH 578 0
DWIDTH 11 0
BBX 10 16 1 0
BITMAP
0300
0700
1800
0000
1F80
2180
4100
4000
C000
C000
C000
C3C0
C180
4180
6180
1F00
ENDCHAR
STARTCHAR 01F5
ENCODING 501
SWIDTH 526 0
DWIDTH 10 0
BBX 10 18 0 -4
BITMAP
0700
0600
0C00
0800
1000
3CC0
4300
C300
C300
E200
3C00
7000
7C00
7F80
C380
C180
C100
3E00
ENDCHAR
STARTCHAR 01F8
ENCODING 504
SWIDTH 684 0
DWIDTH 13 0
BBX 11 16 1 0
BITMAP
1000
3C00
0600
0000
E0E0
7040
7040
7840
5C40
4E40
4E40
4740
43C0
41C0
41C0
E0C0
ENDCHAR
STARTCHAR 01F9
ENCODING 505
SWIDTH 578 0
DWIDTH 11 0
BBX 9 14 1 0
BITMAP
3000
1800
0C00
0400
0000
6600
FF00
7300
6300
6300
6300
6300
6300
F780
ENDCHAR
STARTCHAR 01FA
ENCODING 506
SWIDTH 631 0
DWIDTH 12 0
BBX 12 20 0 0
BITMAP
0180
0700
0C00
0600
0900
1100
0E00
0000
0600
0E00
0F00
0B00
1B00
1380
1180
3F80
21C0
20C0
60E0
F1F0
ENDCHAR
STARTCHAR 01FB
ENCODING 507
SWIDTH 473 0
DWIDTH 9 0
BBX 8 18 1 0
BITMAP
0E
0C
18
30
38
44
48
38
00
3C
66
C6
0E
7E
C6
C6
CF
76
ENDCHAR
STARTCHAR 01FC
ENCODING 508
SWIDTH 789 0
DWIDTH 15 0
BBX 15 16 0 0
BITMAP
0030
0070
0180
0000
1FFC
0584
0584
0D80
0980
1FF8
1190
1180
3180
2182
6184
F3FC
ENDCHAR
STARTCHAR 01FD
ENCODING 509
SWIDTH 736 0
DWIDTH 14 0
BBX 12 14 1 0
BITMAP
0180
0300
0200
0400
0000
1DC0
6F20
C630
A630
3FF0
4600
C710
FBE0
71C0
ENDCHAR
STARTCHAR 01FE
ENCODING 510
SWIDTH 631 0
DWIDTH 12 0
BBX 10 16 1 0
BITMAP
0200
0F00
1800
0000
1EC0
2180
6180
43C0
C6C0
C4C0
C8C0
D8C0
F080
6180
6100
DE00
ENDCHAR
STARTCHAR 01FF
ENCODING 511
SWIDTH 526 0
DWIDTH 10 0
BBX 8 14 1 0
BITMAP
0E
0C
18
10
00
3F
66
47
CB
DB
D3
E2
66
FC
ENDCHAR
STARTCHAR 021E
ENCODING 542
SWIDTH 684 0
DWIDTH 13 0
BBX 11 17 1 0
BITMAP
3100
1B80
0E00
0C00
0000
F1E0
60C0
60C0
60C0
60C0
7FC0
60C0
60C0
60C0
60C0
60C0
F1E0
ENDCHAR
STARTCHAR 021F
ENCODING 543
SWIDTH 578 0
DWIDTH 11 0
BBX 9 19 1 0
BITMAP
6300
3E00
1C00
0800
0000
6000
E000
6000
6000
6000
6600
7F00
7300
6300
6300
6300
6300
6300
F780
ENDCHAR
STARTCHAR 0226
ENCODING 550
SWIDTH 631 0
DWIDTH 12 0
BBX 12 16 0 0
BITMAP
0600
0600
0600
0000
0600
0E00
0F00
0B00
1B00
1380
1180
3F80
21C0
20C0
60E0
F1F0
ENDCHAR
STARTCHAR 0227
ENCODING 551
SWIDTH 473 0
DWIDTH 9 0
BBX 8 13 1 0
BITMAP
18
18
18
00
3C
66
C6
0E
7E
C6
C6
CF
76
ENDCHAR
STARTCHAR 0228
ENCODING 552
SWIDTH 526 0
DWIDTH 10 0
BBX 10 16 0 -4
BITMAP
FF80
3080
3080
3000
3000
3F00
3200
3000
3000
3040
3080
FF80
0800
0E00
0600
1800
ENDCHAR
STARTCHAR 0229
ENCODING 553
SWIDTH 526 0
DWIDTH 10 0
BBX 8 13 1 -4
BITMAP
1E
63
C3
FF
C0
C0
E3
7E
3C
10
1C
0C
18
ENDCHAR
STARTCHAR 022A
ENCODING 554
SWIDTH 631 0
DWIDTH 12 0
BBX 10 18 1 0
BITMAP
7F80
7F80
3700
3700
3600
0000
1E00
2180
4180
40C0
C0C0
C0C0
C0C0
C0C0
C080
6080
6100
1E00
ENDCHAR
STARTCHAR 022B
ENCODING 555
SWIDTH 526 0
DWIDTH 10 0
BBX 8 16 1 0
BITMAP
7F
FF
00
76
7E
6C
00
3C
46
C3
C3
C3
C3
C2
62
3C
ENDCHAR
STARTCHAR 022C
ENCODING 556
SWIDTH 631 0
DWIDTH 12 0
BBX 10 18 1 0
BITMAP
7F80
7F80
1900
3F00
4600
0000
1E00
2180
4180
40C0
C0C0
C0C0
C0C0
C0C0
C080
6080
6100
1E00
ENDCHAR
STARTCHAR 022D
ENCODING 557
SWIDTH 526 0
DWIDTH 10 0
BBX 8 17 1 0
BITMAP
7F
7F
80
00
39
7E
4C
00
3C
46
C3
C3
C3
C3
C2
62
3C
ENDCHAR
STARTCHAR 022E
ENCODING 558
SWIDTH 631 0
DWIDTH 12 0
BBX 10 16 1 0
BITMAP
0C00
0C00
0C00
0000
1E00
2180
4180
40C0
C0C0
C0C0
C0C0
C0C0
C080
6080
6100
1E00
ENDCHAR
STARTCHAR 022F
ENCODING 559
SWIDTH 526 0
DWIDTH 10 0
BBX 8 13 1 0
BITMAP
1C
1C
18
00
3C
46
C3
C3
C3
C3
C2
62
3C
ENDCHAR
STARTCHAR 0230
ENCODING 560
SWIDTH 631 0
DWIDTH 12 0
BBX 10 18 1 0
BITMAP
7F80
7F80
0C00
0C00
0C00
0000
1E00
2180
4180
40C0
C0C0
C0C0
C0C0
C0C0
C080
6080
6100
1E00
ENDCHAR
STARTCHAR 0231
ENCODING 561
SWIDTH 526 0
DWIDTH 10 0
BBX 8 16 1 0
BITMAP
7F
FF
00
1C
1C
18
00
3C
46
C3
C3
C3
C3
C2
62
3C
ENDCHAR
STARTCHAR 0232
ENCODING 562
SWIDTH 631 0
DWIDTH 12 0
BBX 11 15 0 0
BITMAP
3FC0
3FC0
0000
F1E0
30C0
1880
1D80
0D00
0F00
0600
0600
0600
0600
0600
0F00
ENDCHAR
STARTCHAR 0233
ENCODING 563
SWIDTH 526 0
DWIDTH 10 0
BBX 11 17 -1 -4
BITMAP
1FC0
3FC0
0000
0000
79E0
3880
1880
1980
0D00
0D00
0E00
0600
0600
0400
0C00
7800
F000
ENDCHAR
STARTCHAR 0237
ENCODING 567
SWIDTH 263 0
DWIDTH 5 0
BBX 6 13 -2 -4
BITMAP
0C
1C
0C
0C
0C
0C
0C
0C
0C
0C
88
F8
E0
ENDCHAR
STARTCHAR 023D
ENCODING 573
SWIDTH 526 0
DWIDTH 10 0
BBX 8 12 1 0
BITMAP
F0
60
60
60
60
60
FC
60
60
61
61
FF
ENDCHAR
STARTCHAR 0241
ENCODING 577
SWIDTH 526 0
DWIDTH 10 0
BBX 9 12 0 0
BITMAP
3F00
6180
E180
E180
0180
0300
0400
0C00
0C00
0C00
0C00
1E00
ENDCHAR
STARTCHAR 0242
ENCODING 578
SWIDTH 473 0
DWIDTH 9 0
BBX 7 9 1 0
BITMAP
7C
C6
C6
04
18
30
30
30
F8
ENDCHAR
STARTCHAR 0244
ENCODING 580
SWIDTH 684 0
DWIDTH 13 0
BBX 11 12 1 0
BITMAP
F0E0
6040
6040
6040
6040
FFE0
6040
6040
6040
6080
3080
1F00
ENDCHAR
STARTCHAR 0245
ENCODING 581
SWIDTH 684 0
DWIDTH 13 0
BBX 12 12 0 0
BITMAP
0200
0600
0700
0B00
0B80
1980
1180
11C0
30C0
20E0
2060
F0F0
ENDCHAR
STARTCHAR 024A
ENCODING 586
SWIDTH 684 0
DWIDTH 13 0
BBX 14 16 1 -4
BITMAP
1E80
2380
4180
4180
C180
C180
C180
C180
C180
6380
7D80
3980
0180
018C
018C
00F0
ENDCHAR
STARTCHAR 024B
ENCODING 587
SWIDTH 526 0
DWIDTH 10 0
BBX 12 13 1 -4
BITMAP
1D00
6700
C300
C300
C300
C300
C700
7F00
3B00
0300
0330
0330
01E0
ENDCHAR
STARTCHAR 0251
ENCODING 593
SWIDTH 526 0
DWIDTH 10 0
BBX 8 9 1 0
BITMAP
3A
46
C6
C6
C6
C6
C6
7F
76
ENDCHAR
STARTCHAR 0253
ENCODING 595
SWIDTH 526 0
DWIDTH 10 0
BBX 8 14 1 0
BITMAP
1E
67
40
C0
C0
CE
FE
C3
C3
C3
C3
C2
FC
78
ENDCHAR
STARTCHAR 0254
ENCODING 596
SWIDTH 473 0
DWIDTH 9 0
BBX 7 9 1 0
BITMAP
38
7C
8E
06
06
C6
C6
C4
78
ENDCHAR
STARTCHAR 0256
ENCODING 598
SWIDTH 578 0
DWIDTH 11 0
BBX 13 18 1 -4
BITMAP
0380
0180
0180
0180
0180
1F80
6380
4180
C180
C180
C180
E380
7F80
3D80
0180
0198
0198
00F0
ENDCHAR
STARTCHAR 0257
ENCODING 599
SWIDTH 578 0
DWIDTH 11 0
BBX 12 14 1 0
BITMAP
00E0
0130
0300
0300
0300
3F00
4300
C300
C300
C300
C300
E300
7F80
3B00
ENDCHAR
STARTCHAR 0259
ENCODING 601
SWIDTH 473 0
DWIDTH 9 0
BBX 7 9 1 0
BITMAP
38
7C
8E
06
7E
C6
C6
CC
78
ENDCHAR
STARTCHAR 025B
ENCODING 603
SWIDTH 421 0
DWIDTH 8 0
BBX 7 9 1 0
BITMAP
3C
46
44
70
60
C0
C2
FC
78
ENDCHAR
STARTCHAR 0263
ENCODING 611
SWIDTH 526 0
DWIDTH 10 0
BBX 9 13 1 -4
BITMAP
F380
6300
7200
3600
3C00
1C00
1C00
1C00
1E00
3600
2600
2600
1C00
ENDCHAR
STARTCHAR 0268
ENCODING 616
SWIDTH 315 0
DWIDTH 6 0
BBX 6 12 0 0
BITMAP
18
38
00
30
70
30
30
7C
B0
30
30
78
ENDCHAR
STARTCHAR 0269
ENCODING 617
SWIDTH 315 0
DWIDTH 6 0
BBX 5 9 1 0
BITMAP
60
E0
60
60
60
60
60
78
70
ENDCHAR
STARTCHAR 026B
ENCODING 619
SWIDTH 368 0
DWIDTH 7 0
BBX 8 14 0 0
BITMAP
38
58
18
18
18
3B
7E
9C
18
18
18
18
18
7C
ENDCHAR
STARTCHAR 0272
ENCODING 626
SWIDTH 578 0
DWIDTH 11 0
BBX 13 13 -2 -4
BITMAP
0CE0
1FF0
0E30
0C30
0C30
0C30
0C30
0C30
0C78
0C00
8800
F800
E000
ENDCHAR
STARTCHAR 0275
ENCODING 629
SWIDTH 526 0
DWIDTH 10 0
BBX 8 9 1 0
BITMAP
3C
66
C3
C3
FF
C3
C2
66
3C
ENDCHAR
STARTCHAR 0283
ENCODING 643
SWIDTH 263 0
DWIDTH 5 0
BBX 10 18 -3 -4
BITMAP
03C0
0480
0C00
0C00
0C00
0C00
0C00
0C00
0E00
0600
0600
0600
0600
0600
0600
4400
7C00
F800
ENDCHAR
STARTCHAR 0289
ENCODING 649
SWIDTH 578 0
DWIDTH 11 0
BBX 10 9 0 0
BITMAP
E380
6180
6180
6180
FFC0
6180
6380
7FC0
3980
ENDCHAR
STARTCHAR 028A
ENCODING 650
SWIDTH 526 0
DWIDTH 10 0
BBX 8 9 1 0
BITMAP
E7
24
42
C3
C3
C3
C3
62
3C
ENDCHAR
STARTCHAR 028C
ENCODING 652
SWIDTH 526 0
DWIDTH 10 0
BBX 10 9 0 0
BITMAP
0C00
0C00
1C00
1600
3600
2700
2300
6380
E7C0
ENDCHAR
STARTCHAR 0292
ENCODING 658
SWIDTH 473 0
DWIDTH 9 0
BBX 8 13 0 -4
BITMAP
7F
46
46
0C
1C
18
3E
07
03
03
43
E2
7C
ENDCHAR
STARTCHAR 0294
ENCODING 660
SWIDTH 526 0
DWIDTH 10 0
BBX 8 14 1 0
BITMAP
3E
47
C3
C3
03
06
08
10
30
30
30
30
30
FC
ENDCHAR
STARTCHAR 02A0
ENCODING 672
SWIDTH 526 0
DWIDTH 10 0
BBX 12 18 1 -4
BITMAP
00E0
0130
0300
0300
0300
3F00
4300
C300
C300
C300
C300
E300
7F00
3B00
0300
0300
0300
0F80
ENDCHAR
STARTCHAR 02BC
ENCODING 700
SWIDTH 263 0
DWIDTH 5 0
BBX 2 5 2 9
BITMAP
C0
C0
40
40
40
ENDCHAR
STARTCHAR 02C0
ENCODING 704
SWIDTH 315 0
DWIDTH 6 0
BBX 5 6 0 8
BITMAP
70
88
88
10
20
20
ENDCHAR
STARTCHAR 02C6
ENCODING 710
SWIDTH 368 0
DWIDTH 7 0
BBX 7 4 0 10
BITMAP
30
38
6C
86
ENDCHAR
STARTCHAR 02C7
ENCODING 711
SWIDTH 368 0
DWIDTH 7 0
BBX 7 4 0 10
BITMAP
86
6C
38
30
ENDCHAR
STARTCHAR 02C9
ENCODING 713
SWIDTH 473 0
DWIDTH 9 0
BBX 8 2 1 11
BITMAP
FF
FE
ENDCHAR
STARTCHAR 02CA
ENCODING 714
SWIDTH 210 0
DWIDTH 4 0
BBX 4 4 0 10
BITMAP
30
70
40
80
ENDCHAR
STARTCHAR 02CB
ENCODING 715
SWIDTH 210 0
DWIDTH 4 0
BBX 4 4 0 10
BITMAP
E0
60
30
10
ENDCHAR
STARTCHAR 02CD
ENCODING 717
SWIDTH 473 0
DWIDTH 9 0
BBX 8 2 1 -2
BITMAP
FF
FE
ENDCHAR
STARTCHAR 02D7
ENCODING 727
SWIDTH 368 0
DWIDTH 7 0
BBX 6 1 0 4
BITMAP
FC
ENDCHAR
STARTCHAR 02D8
ENCODING 728
SWIDTH 368 0
DWIDTH 7 0
BBX 7 3 0 10
BITMAP
86
7C
38
ENDCHAR
STARTCHAR 02D9
ENCODING 729
SWIDTH 210 0
DWIDTH 4 0
BBX 3 3 0 10
BITMAP
60
E0
E0
ENDCHAR
STARTCHAR 02DA
ENCODING 730
SWIDTH 263 0
DWIDTH 5 0
BBX 4 4 0 10
BITMAP
70
90
90
E0
ENDCHAR
STARTCHAR 02DB
ENCODING 731
SWIDTH 263 0
DWIDTH 5 0
BBX 4 4 1 -4
BITMAP
20
C0
D0
E0
ENDCHAR
STARTCHAR 02DC
ENCODING 732
SWIDTH 421 0
DWIDTH 8 0
BBX 7 3 0 10
BITMAP
32
7E
8C
ENDCHAR
STARTCHAR 02DD
ENCODING 733
SWIDTH 368 0
DWIDTH 7 0
BBX 7 4 0 10
BITMAP
36
6C
48
D8
ENDCHAR
STARTCHAR 0300
ENCODING 768
SWIDTH 0 0
DWIDTH 0 0
BBX 4 4 -7 10
BITMAP
E0
60
30
10
ENDCHAR
STARTCHAR 0301
ENCODING 769
SWIDTH 0 0
DWIDTH 0 0
BBX 4 4 -6 10
BITMAP
70
60
C0
80
ENDCHAR
STARTCHAR 0302
ENCODING 770
SWIDTH 0 0
DWIDTH 0 0
BBX 6 4 -8 10
BITMAP
30
78
6C
84
ENDCHAR
STARTCHAR 0303
ENCODING 771
SWIDTH 0 0
DWIDTH 0 0
BBX 8 3 -9 10
BITMAP
31
7E
8C
ENDCHAR
STARTCHAR 0304
ENCODING 772
SWIDTH 0 0
DWIDTH 0 0
BBX 8 2 -9 11
BITMAP
7F
FF
ENDCHAR
STARTCHAR 0306
ENCODING 774
SWIDTH 0 0
DWIDTH 0 0
BBX 7 3 -8 10
BITMAP
84
FE
78
ENDCHAR
STARTCHAR 0307
ENCODING 775
SWIDTH 0 0
DWIDTH 0 0
BBX 3 3 -6 10
BITMAP
E0
E0
C0
ENDCHAR
STARTCHAR 0308
ENCODING 776
SWIDTH 0 0
DWIDTH 0 0
BBX 6 3 -8 10
BITMAP
EC
FC
DC
ENDCHAR
STARTCHAR 0309
ENCODING 777
SWIDTH 0 0
DWIDTH 0 0
BBX 3 4 -6 10
BITMAP
60
E0
60
60
ENDCHAR
STARTCHAR 030A
ENCODING 778
SWIDTH 0 0
DWIDTH 0 0
BBX 4 4 -7 10
BITMAP
70
90
90
E0
ENDCHAR
STARTCHAR 030B
ENCODING 779
SWIDTH 0 0
DWIDTH 0 0
BBX 6 4 -7 10
BITMAP
6C
6C
D8
90
ENDCHAR
STARTCHAR 030C
ENCODING 780
SWIDTH 0 0
DWIDTH 0 0
BBX 6 4 -8 10
BITMAP
84
6C
38
30
ENDCHAR
STARTCHAR 031B
ENCODING 795
SWIDTH 52 0
DWIDTH 1 0
BBX 4 5 -3 6
BITMAP
10
30
30
20
C0
ENDCHAR
STARTCHAR 0323
ENCODING 803
SWIDTH 0 0
DWIDTH 0 0
BBX 3 3 -6 -4
BITMAP
E0
E0
C0
ENDCHAR
STARTCHAR 0327
ENCODING 807
SWIDTH 0 0
DWIDTH 0 0
BBX 3 4 -6 -4
BITMAP
40
60
60
C0
ENDCHAR
STARTCHAR 0328
ENCODING 808
SWIDTH 0 0
DWIDTH 0 0
BBX 4 4 -7 -4
BITMAP
20
C0
D0
E0
ENDCHAR
STARTCHAR 0331
ENCODING 817
SWIDTH 0 0
DWIDTH 0 0
BBX 8 2 -9 -3
BITMAP
7F
FF
ENDCHAR
STARTCHAR 033F
ENCODING 831
SWIDTH 0 0
DWIDTH 0 0
BBX 11 4 -10 11
BITMAP
7FE0
8000
0000
FFE0
ENDCHAR
STARTCHAR 035E
ENCODING 862
SWIDTH 0 0
DWIDTH 0 0
BBX 14 2 -7 15
BITMAP
7FFC
FFF8
ENDCHAR
STARTCHAR 035F
ENCODING 863
SWIDTH 0 0
DWIDTH 0 0
BBX 14 2 -7 -7
BITMAP
7FFC
FFF8
ENDCHAR
STARTCHAR 03A0
ENCODING 928
SWIDTH 684 0
DWIDTH 13 0
BBX 11 12 1 0
BITMAP
FFE0
60C0
60C0
60C0
60C0
60C0
60C0
60C0
60C0
60C0
60C0
F1E0
ENDCHAR
STARTCHAR 03A9
ENCODING 937
SWIDTH 684 0
DWIDTH 13 0
BBX 11 12 1 0
BITMAP
1F00
20C0
4060
C060
C060
C060
C060
4040
A0A0
A120
F1E0
F1E0
ENDCHAR
STARTCHAR 03C0
ENCODING 960
SWIDTH 526 0
DWIDTH 10 0
BBX 10 9 0 0
BITMAP
3FC0
7F80
9200
1200
1200
3200
3200
3380
6300
ENDCHAR
STARTCHAR 1E02
ENCODING 7682
SWIDTH 578 0
DWIDTH 11 0
BBX 9 16 1 0
BITMAP
0C00
1C00
1800
0000
FE00
6300
6300
6300
6200
7E00
6380
6180
6180
6180
6180
FE00
ENDCHAR
STARTCHAR 1E03
ENCODING 7683
SWIDTH 526 0
DWIDTH 10 0
BBX 9 14 0 0
BITMAP
E000
6300
6700
6700
6000
6700
7F80
7080
6080
6080
6080
6080
7F00
1C00
ENDCHAR
STARTCHAR 1E04
ENCODING 7684
SWIDTH 578 0
DWIDTH 11 0
BBX 9 16 1 -4
BITMAP
FE00
6300
6300
6300
6200
7E00
6380
6180
6180
6180
6180
FE00
0000
0C00
1C00
1800
ENDCHAR
STARTCHAR 1E05
ENCODING 7685
SWIDTH 526 0
DWIDTH 10 0
BBX 9 18 0 -4
BITMAP
6000
E000
6000
6000
6000
6700
7F00
7080
6080
6080
6080
6100
7E00
3C00
0000
0C00
0C00
0C00
ENDCHAR
STARTCHAR 1E06
ENCODING 7686
SWIDTH 578 0
DWIDTH 11 0
BBX 9 15 1 -3
BITMAP
FE00
6300
6300
6300
6200
7E00
6380
6180
6180
6180
6180
FE00
0000
7F00
FF00
ENDCHAR
STARTCHAR 1E07
ENCODING 7687
SWIDTH 526 0
DWIDTH 10 0
BBX 9 17 0 -3
BITMAP
6000
E000
6000
6000
6000
6700
7F00
7080
6080
6080
6080
6100
7E00
3C00
0000
7F80
7F00
ENDCHAR
STARTCHAR 1E08
ENCODING 7688
SWIDTH 578 0
DWIDTH 11 0
BBX 9 20 1 -4
BITMAP
0300
0780
0E00
0800
1F00
6380
4100
C000
C000
C000
C000
C000
C000
6080
3B80
1E00
0800
0600
0E00
1C00
ENDCHAR
STARTCHAR 1E09
ENCODING 7689
SWIDTH 473 0
DWIDTH 9 0
BBX 8 18 1 -4
BITMAP
0E
0C
18
10
20
3E
46
C4
C0
C0
C0
C2
7F
3C
10
0C
1C
30
ENDCHAR
STARTCHAR 1E0A
ENCODING 7690
SWIDTH 631 0
DWIDTH 12 0
BBX 10 16 1 0
BITMAP
0C00
1C00
1C00
0000
FE00
6380
6180
60C0
60C0
60C0
60C0
60C0
60C0
6180
6300
FE00
ENDCHAR
STARTCHAR 1E0B
ENCODING 7691
SWIDTH 578 0
DWIDTH 11 0
BBX 9 14 1 0
BITMAP
0700
7300
7300
6300
0300
3F00
4300
C300
C300
C300
C300
E300
7F80
3B00
ENDCHAR
STARTCHAR 1E0C
ENCODING 7692
SWIDTH 631 0
DWIDTH 12 0
BBX 10 16 1 -4
BITMAP
FE00
6380
6180
60C0
60C0
60C0
60C0
60C0
60C0
6180
6300
FE00
0000
0C00
1C00
1C00
ENDCHAR
STARTCHAR 1E0D
ENCODING 7693
SWIDTH 578 0
DWIDTH 11 0
BBX 9 18 1 -4
BITMAP
0700
0300
0300
0300
0300
3F00
4300
C300
C300
C300
C300
E300
7F80
3B00
0000
1C00
1C00
1800
ENDCHAR
STARTCHAR 1E0E
ENCODING 7694
SWIDTH 631 0
DWIDTH 12 0
BBX 10 15 1 -3
BITMAP
FE00
6380
6180
60C0
60C0
60C0
60C0
60C0
60C0
6180
6300
FE00
0000
7F00
7F00
ENDCHAR
STARTCHAR 1E0F
ENCODING 7695
SWIDTH 578 0
DWIDTH 11 0
BBX 9 17 1 -3
BITMAP
0700
0300
0300
0300
0300
3F00
4300
C300
C300
C300
C300
E300
7F80
3B00
0000
7F00
FF00
ENDCHAR
STARTCHAR 1E14
ENCODING 7700
SWIDTH 526 0
DWIDTH 10 0
BBX 10 19 0 0
BITMAP
3000
3800
0600
0000
7F80
7F80
0000
FF80
3080
3080
3000
3000
3F00
3200
3000
3000
3040
3080
FF80
ENDCHAR
STARTCHAR 1E15
ENCODING 7701
SWIDTH 473 0
DWIDTH 9 0
BBX 8 17 1 0
BITMAP
70
30
18
08
FF
FF
00
00
3C
64
C6
C6
FE
C0
E2
7C
38
ENDCHAR
STARTCHAR 1E16
ENCODING 7702
SWIDTH 526 0
DWIDTH 10 0
BBX 10 19 0 0
BITMAP
0200
0700
1800
0000
7F80
7F80
0000
FF80
3080
3080
3000
3000
3F00
3200
3000
3000
3040
3080
FF80
ENDCHAR
STARTCHAR 1E17
ENCODING 7703
SWIDTH 473 0
DWIDTH 9 0
BBX 8 17 1 0
BITMAP
0E
0C
18
10
FF
FF
00
00
3C
64
C6
C6
FE
C0
E2
7C
38
ENDCHAR
STARTCHAR 1E1C
ENCODING 7708
SWIDTH 526 0
DWIDTH 10 0
BBX 10 20 0 -4
BITMAP
2100
3F00
1E00
0000
FF80
3080
3080
3000
3000
3F00
3200
3000
3000
3040
3080
FF80
0800
0E00
0600
1800
ENDCHAR
STARTCHAR 1E1D
ENCODING 7709
SWIDTH 526 0
DWIDTH 10 0
BBX 8 17 1 -4
BITMAP
42
7E
3C
00
1E
63
C3
FF
FF
C0
C0
63
3C
10
1C
0C
18
ENDCHAR
STARTCHAR 1E1E
ENCODING 7710
SWIDTH 526 0
DWIDTH 10 0
BBX 9 16 0 0
BITMAP
0C00
0C00
1C00
0000
FF80
3080
3080
3000
3000
3F00
3200
3000
3000
3000
3000
FC00
ENDCHAR
STARTCHAR 1E1F
ENCODING 7711
SWIDTH 315 0
DWIDTH 6 0
BBX 7 18 1 0
BITMAP
18
38
10
00
1E
26
60
60
60
FC
60
60
60
60
60
60
60
F8
ENDCHAR
STARTCHAR 1E20
ENCODING 7712
SWIDTH 578 0
DWIDTH 11 0
BBX 10 15 1 0
BITMAP
3F80
7F80
0000
1F80
2180
4100
4000
C000
C000
C000
C3C0
C180
4180
6180
1F00
ENDCHAR
STARTCHAR 1E21
ENCODING 7713
SWIDTH 526 0
DWIDTH 10 0
BBX 10 17 0 -4
BITMAP
7F80
7F80
0000
0000
3CC0
4300
C300
C300
E200
3C00
7000
7C00
7F80
C380
C180
C100
3E00
ENDCHAR
STARTCHAR 1E22
ENCODING 7714
SWIDTH 684 0
DWIDTH 13 0
BBX 11 16 1 0
BITMAP
0600
0E00
0C00
0000
F1E0
60C0
60C0
60C0
60C0
7FC0
60C0
60C0
60C0
60C0
60C0
F1E0
ENDCHAR
STARTCHAR 1E23
ENCODING 7715
SWIDTH 578 0
DWIDTH 11 0
BBX 9 18 1 0
BITMAP
0C00
1C00
0800
0000
6000
E000
6000
6000
6000
6600
7F00
7300
6300
6300
6300
6300
6300
F780
ENDCHAR
STARTCHAR 1E24
ENCODING 7716
SWIDTH 684 0
DWIDTH 13 0
BBX 11 16 1 -4
BITMAP
F1E0
60C0
60C0
60C0
60C0
7FC0
60C0
60C0
60C0
60C0
60C0
F1E0
0000
0600
0E00
0C00
ENDCHAR
STARTCHAR 1E25
ENCODING 7717
SWIDTH 578 0
DWIDTH 11 0
BBX 9 18 1 -4
BITMAP
6000
E000
6000
6000
6000
6600
7F00
7300
6300
6300
6300
6300
6300
F780
0000
0C00
1C00
0C00
ENDCHAR
STARTCHAR 1E26
ENCODING 7718
SWIDTH 684 0
DWIDTH 13 0
BBX 11 16 1 0
BITMAP
1B00
3F00
3300
0000
F1E0
60C0
60C0
60C0
60C0
7FC0
60C0
60C0
60C0
60C0
60C0
F1E0
ENDCHAR
STARTCHAR 1E27
ENCODING 7719
SWIDTH 578 0
DWIDTH 11 0
BBX 9 18 1 0
BITMAP
3600
7600
2600
0000
6000
E000
6000
6000
6000
6600
7F00
7300
6300
6300
6300
6300
6300
F780
ENDCHAR
STARTCHAR 1E2E
ENCODING 7726
SWIDTH 315 0
DWIDTH 6 0
BBX 6 19 0 0
BITMAP
0C
38
60
CC
FC
D8
00
78
30
30
30
30
30
30
30
30
30
30
78
ENDCHAR
STARTCHAR 1E2F
ENCODING 7727
SWIDTH 315 0
DWIDTH 6 0
BBX 6 17 0 0
BITMAP
1C
38
30
40
DC
DC
D8
00
30
70
30
30
30
30
30
30
78
ENDCHAR
STARTCHAR 1E30
ENCODING 7728
SWIDTH 631 0
DWIDTH 12 0
BBX 11 16 1 0
BITMAP
0200
0F00
1800
0000
F3C0
6300
6300
6600
6C00
7800
7C00
6E00
6700
6300
6180
F1E0
ENDCHAR
STARTCHAR 1E31
ENCODING 7729
SWIDTH 526 0
DWIDTH 10 0
BBX 10 18 1 0
BITMAP
0700
0C00
1000
0000
6000
E000
6000
6000
6000
6780
6300
6400
6800
7C00
6E00
6600
6300
F3C0
ENDCHAR
STARTCHAR 1E32
ENCODING 7730
SWIDTH 631 0
DWIDTH 12 0
BBX 11 16 1 -4
BITMAP
F3C0
6300
6300
6600
6C00
7800
7C00
6E00
6700
6300
6180
F1E0
0000
0C00
0E00
0C00
ENDCHAR
STARTCHAR 1E33
ENCODING 7731
SWIDTH 526 0
DWIDTH 10 0
BBX 10 18 1 -4
BITMAP
6000
E000
6000
6000
6000
6780
6300
6400
6800
7C00
6E00
6600
6300
F3C0
0000
0C00
1C00
1C00
ENDCHAR
STARTCHAR 1E34
ENCODING 7732
SWIDTH 631 0
DWIDTH 12 0
BBX 11 15 1 -3
BITMAP
F3C0
6300
6300
6600
6C00
7800
7C00
6E00
6700
6300
6180
F1E0
0000
7F80
7F80
ENDCHAR
STARTCHAR 1E35
ENCODING 7733
SWIDTH 526 0
DWIDTH 10 0
BBX 10 17 1 -3
BITMAP
6000
E000
6000
6000
6000
6780
6300
6400
6800
7C00
6E00
6600
6300
F3C0
0000
7F00
7F00
ENDCHAR
STARTCHAR 1E36
ENCODING 7734
SWIDTH 526 0
DWIDTH 10 0
BBX 8 16 1 -4
BITMAP
F0
60
60
60
60
60
60
60
60
61
61
FF
00
18
18
18
ENDCHAR
STARTCHAR 1E37
ENCODING 7735
SWIDTH 315 0
DWIDTH 6 0
BBX 5 18 0 -4
BITMAP
30
F0
30
30
30
30
30
30
30
30
30
30
30
F8
00
30
30
30
ENDCHAR
STARTCHAR 1E38
ENCODING 7736
SWIDTH 526 0
DWIDTH 10 0
BBX 8 19 1 -4
BITMAP
FF
FE
00
F0
60
60
60
60
60
60
60
60
61
61
FF
00
18
18
18
ENDCHAR
STARTCHAR 1E39
ENCODING 7737
SWIDTH 315 0
DWIDTH 6 0
BBX 8 22 -1 -4
BITMAP
FF
FF
00
00
18
78
18
18
18
18
18
18
18
18
18
18
18
7C
00
18
18
18
ENDCHAR
STARTCHAR 1E3A
ENCODING 7738
SWIDTH 526 0
DWIDTH 10 0
BBX 8 15 1 -3
BITMAP
F0
60
60
60
60
60
60
60
60
61
61
FF
00
FF
FF
ENDCHAR
STARTCHAR 1E3B
ENCODING 7739
SWIDTH 315 0
DWIDTH 6 0
BBX 8 17 -1 -3
BITMAP
18
78
18
18
18
18
18
18
18
18
18
18
18
7C
00
FF
FF
ENDCHAR
STARTCHAR 1E3E
ENCODING 7742
SWIDTH 842 0
DWIDTH 16 0
BBX 15 16 0 0
BITMAP
0040
01E0
0300
0000
701E
381C
381C
3C3C
2C2C
2C6C
264C
26CC
238C
238C
238C
F11E
ENDCHAR
STARTCHAR 1E3F
ENCODING 7743
SWIDTH 842 0
DWIDTH 16 0
BBX 14 14 1 0
BITMAP
01C0
0180
0300
0200
0000
6E70
FFF8
7398
6318
6318
6318
6318
6318
F7BC
ENDCHAR
STARTCHAR 1E40
ENCODING 7744
SWIDTH 842 0
DWIDTH 16 0
BBX 15 16 0 0
BITMAP
0180
0180
0180
0000
701E
381C
381C
3C3C
2C2C
2C6C
264C
26CC
238C
238C
238C
F11E
ENDCHAR
STARTCHAR 1E41
ENCODING 7745
SWIDTH 842 0
DWIDTH 16 0
BBX 14 13 1 0
BITMAP
0300
0380
0300
0000
6E70
FFF8
7398
6318
6318
6318
6318
6318
F7BC
ENDCHAR
STARTCHAR 1E42
ENCODING 7746
SWIDTH 842 0
DWIDTH 16 0
BBX 15 16 0 -4
BITMAP
701E
381C
381C
3C3C
2C2C
2C6C
264C
26CC
238C
238C
238C
F11E
0000
0180
0180
0180
ENDCHAR
STARTCHAR 1E43
ENCODING 7747
SWIDTH 842 0
DWIDTH 16 0
BBX 14 13 1 -4
BITMAP
6E70
FFF8
7398
6318
6318
6318
6318
6318
F7BC
0000
0300
0380
0300
ENDCHAR
STARTCHAR 1E44
ENCODING 7748
SWIDTH 684 0
DWIDTH 13 0
BBX 11 16 1 0
BITMAP
0600
0E00
0C00
0000
E0E0
7040
7040
7840
5C40
4E40
4E40
4740
43C0
41C0
41C0
E0C0
ENDCHAR
STARTCHAR 1E45
ENCODING 7749
SWIDTH 578 0
DWIDTH 11 0
BBX 9 13 1 0
BITMAP
0C00
1C00
0C00
0000
6600
FF00
7300
6300
6300
6300
6300
6300
F780
ENDCHAR
STARTCHAR 1E46
ENCODING 7750
SWIDTH 684 0
DWIDTH 13 0
BBX 11 16 1 -4
BITMAP
E0E0
7040
7040
7840
5C40
4E40
4E40
4740
43C0
41C0
41C0
E0C0
0000
0600
0E00
0C00
ENDCHAR
STARTCHAR 1E47
ENCODING 7751
SWIDTH 578 0
DWIDTH 11 0
BBX 9 13 1 -4
BITMAP
6600
FF00
7300
6300
6300
6300
6300
6300
F780
0000
0C00
1C00
0C00
ENDCHAR
STARTCHAR 1E48
ENCODING 7752
SWIDTH 684 0
DWIDTH 13 0
BBX 11 15 1 -3
BITMAP
E0E0
7040
7040
7840
5C40
4E40
4E40
4740
43C0
41C0
41C0
E0C0
0000
3F80
7F80
ENDCHAR
STARTCHAR 1E49
ENCODING 7753
SWIDTH 578 0
DWIDTH 11 0
BBX 9 12 1 -3
BITMAP
6600
FF00
7300
6300
6300
6300
6300
6300
F780
0000
7F80
7F00
ENDCHAR
STARTCHAR 1E4C
ENCODING 7756
SWIDTH 631 0
DWIDTH 12 0
BBX 10 19 1 0
BITMAP
0700
0E00
1000
1980
3F00
4600
0000
1E00
2180
4180
40C0
C0C0
C0C0
C0C0
C0C0
C080
6080
6100
1E00
ENDCHAR
STARTCHAR 1E4D
ENCODING 7757
SWIDTH 526 0
DWIDTH 10 0
BBX 8 18 1 0
BITMAP
04
0E
0C
18
00
39
7E
4C
00
3C
46
C3
C3
C3
C3
C2
62
3C
ENDCHAR
STARTCHAR 1E4E
ENCODING 7758
SWIDTH 631 0
DWIDTH 12 0
BBX 10 19 1 0
BITMAP
3700
3700
3600
1980
3F00
4600
0000
1E00
2180
4180
40C0
C0C0
C0C0
C0C0
C0C0
C080
6080
6100
1E00
ENDCHAR
STARTCHAR 1E4F
ENCODING 7759
SWIDTH 526 0
DWIDTH 10 0
BBX 8 17 1 0
BITMAP
24
7E
7E
00
39
7E
4C
00
3C
46
C3
C3
C3
C3
C2
62
3C
ENDCHAR
STARTCHAR 1E50
ENCODING 7760
SWIDTH 631 0
DWIDTH 12 0
BBX 10 19 1 0
BITMAP
3000
3800
0600
0000
7F80
7F80
0000
1E00
2180
4180
40C0
C0C0
C0C0
C0C0
C0C0
C080
6080
6100
1E00
ENDCHAR
STARTCHAR 1E51
ENCODING 7761
SWIDTH 526 0
DWIDTH 10 0
BBX 8 17 1 0
BITMAP
70
38
08
0C
7F
FF
00
00
3C
46
C3
C3
C3
C3
C2
62
3C
ENDCHAR
STARTCHAR 1E52
ENCODING 7762
SWIDTH 631 0
DWIDTH 12 0
BBX 10 19 1 0
BITMAP
0200
0700
1800
0000
7F80
7F80
0000
1E00
2180
4180
40C0
C0C0
C0C0
C0C0
C0C0
C080
6080
6100
1E00
ENDCHAR
STARTCHAR 1E53
ENCODING 7763
SWIDTH 526 0
DWIDTH 10 0
BBX 8 17 1 0
BITMAP
0E
0C
18
10
7F
FF
00
00
3C
46
C3
C3
C3
C3
C2
62
3C
ENDCHAR
STARTCHAR 1E54
ENCODING 7764
SWIDTH 578 0
DWIDTH 11 0
BBX 9 16 1 0
BITMAP
0600
0E00
3000
0000
FE00
6300
6180
6180
6180
6100
7E00
6000
6000
6000
6000
F800
ENDCHAR
STARTCHAR 1E55
ENCODING 7765
SWIDTH 578 0
DWIDTH 11 0
BBX 9 18 1 -4
BITMAP
0600
0C00
1800
1000
0000
6700
FF00
6180
6180
6180
6180
6100
7F00
6E00
6000
6000
6000
F800
ENDCHAR
STARTCHAR 1E56
ENCODING 7766
SWIDTH 578 0
DWIDTH 11 0
BBX 9 16 1 0
BITMAP
1C00
1C00
1800
0000
FE00
6300
6180
6180
6180
6100
7E00
6000
6000
6000
6000
F800
ENDCHAR
STARTCHAR 1E57
ENCODING 7767
SWIDTH 578 0
DWIDTH 11 0
BBX 9 17 1 -4
BITMAP
1C00
1C00
1800
0000
6700
FF00
6180
6180
6180
6180
6100
7F00
6E00
6000
6000
6000
F800
ENDCHAR
STARTCHAR 1E58
ENCODING 7768
SWIDTH 631 0
DWIDTH 12 0
BBX 11 16 1 0
BITMAP
1C00
1C00
1800
0000
FE00
6380
6180
6180
6180
7F00
7E00
6600
6300
6380
61C0
F1E0
ENDCHAR
STARTCHAR 1E59
ENCODING 7769
SWIDTH 421 0
DWIDTH 8 0
BBX 8 13 0 0
BITMAP
0C
1C
0C
00
37
FF
39
31
30
30
30
30
FC
ENDCHAR
STARTCHAR 1E5A
ENCODING 7770
SWIDTH 631 0
DWIDTH 12 0
BBX 11 16 1 -4
BITMAP
FE00
6380
6180
6180
6180
7F00
7E00
6600
6300
6380
61C0
F1E0
0000
1C00
1C00
1800
ENDCHAR
STARTCHAR 1E5B
ENCODING 7771
SWIDTH 421 0
DWIDTH 8 0
BBX 8 13 0 -4
BITMAP
37
FF
39
31
30
30
30
30
FC
00
30
30
30
ENDCHAR
STARTCHAR 1E5C
ENCODING 7772
SWIDTH 631 0
DWIDTH 12 0
BBX 11 19 1 -4
BITMAP
7F00
FF00
0000
FE00
6380
6180
6180
6180
7F00
7E00
6600
6300
6380
61C0
F1E0
0000
1C00
1C00
1800
ENDCHAR
STARTCHAR 1E5D
ENCODING 7773
SWIDTH 421 0
DWIDTH 8 0
BBX 9 17 0 -4
BITMAP
7F80
7F00
0000
0000
3700
FF00
3900
3100
3000
3000
3000
3000
FC00
0000
3000
3000
3000
ENDCHAR
STARTCHAR 1E5E
ENCODING 7774
SWIDTH 631 0
DWIDTH 12 0
BBX 11 15 1 -3
BITMAP
FE00
6380
6180
6180
6180
7F00
7E00
6600
6300
6380
61C0
F1E0
0000
7F00
FF00
ENDCHAR
STARTCHAR 1E5F
ENCODING 7775
SWIDTH 421 0
DWIDTH 8 0
BBX 9 12 -1 -3
BITMAP
1B80
7F80
1C80
1880
1800
1800
1800
1800
7E00
0000
FF00
FE00
ENDCHAR
STARTCHAR 1E60
ENCODING 7776
SWIDTH 526 0
DWIDTH 10 0
BBX 8 16 1 0
BITMAP
18
18
18
00
3E
C6
80
80
F0
7C
1E
07
03
83
C2
FC
ENDCHAR
STARTCHAR 1E61
ENCODING 7777
SWIDTH 421 0
DWIDTH 8 0
BBX 6 13 1 0
BITMAP
30
38
30
00
F0
98
90
E0
78
1C
84
C4
F8
ENDCHAR
STARTCHAR 1E62
ENCODING 7778
SWIDTH 526 0
DWIDTH 10 0
BBX 8 16 1 -4
BITMAP
3E
C6
80
80
F0
7C
1E
07
03
83
C2
FC
00
18
18
18
ENDCHAR
STARTCHAR 1E63
ENCODING 7779
SWIDTH 421 0
DWIDTH 8 0
BBX 6 13 1 -4
BITMAP
F0
98
90
E0
78
1C
84
C4
F8
00
30
38
30
ENDCHAR
STARTCHAR 1E64
ENCODING 7780
SWIDTH 526 0
DWIDTH 10 0
BBX 8 19 1 0
BITMAP
18
18
18
06
0E
30
00
3E
C6
80
80
F0
7C
1E
07
03
83
C2
FC
ENDCHAR
STARTCHAR 1E65
ENCODING 7781
SWIDTH 421 0
DWIDTH 8 0
BBX 6 17 1 0
BITMAP
20
70
70
1C
18
30
20
00
F0
98
90
E0
78
1C
84
C4
F8
ENDCHAR
STARTCHAR 1E66
ENCODING 7782
SWIDTH 526 0
DWIDTH 10 0
BBX 8 19 1 0
BITMAP
18
18
5A
7C
3C
18
00
3E
C6
80
80
F0
7C
1E
07
03
83
C2
FC
ENDCHAR
STARTCHAR 1E67
ENCODING 7783
SWIDTH 421 0
DWIDTH 8 0
BBX 6 17 1 0
BITMAP
10
38
30
84
C8
78
30
00
F0
98
90
E0
78
1C
84
C4
F8
ENDCHAR
STARTCHAR 1E68
ENCODING 7784
SWIDTH 526 0
DWIDTH 10 0
BBX 8 20 1 -4
BITMAP
18
18
18
00
3E
C6
80
80
F0
7C
1E
07
03
83
C2
FC
00
18
18
18
ENDCHAR
STARTCHAR 1E69
ENCODING 7785
SWIDTH 421 0
DWIDTH 8 0
BBX 6 17 1 -4
BITMAP
30
38
30
00
F0
98
90
E0
78
1C
84
C4
F8
00
30
38
30
ENDCHAR
STARTCHAR 1E6A
ENCODING 7786
SWIDTH 578 0
DWIDTH 11 0
BBX 10 16 0 0
BITMAP
0600
0E00
0C00
0000
FFC0
8C40
8C40
0C00
0C00
0C00
0C00
0C00
0C00
0C00
0C00
1E00
ENDCHAR
STARTCHAR 1E6B
ENCODING 7787
SWIDTH 368 0
DWIDTH 7 0
BBX 6 16 1 0
BITMAP
20
70
70
40
20
60
60
FC
60
60
60
60
60
64
7C
30
ENDCHAR
STARTCHAR 1E6C
ENCODING 7788
SWIDTH 578 0
DWIDTH 11 0
BBX 10 16 0 -4
BITMAP
FFC0
8C40
8C40
0C00
0C00
0C00
0C00
0C00
0C00
0C00
0C00
1E00
0000
0600
0E00
0C00
ENDCHAR
STARTCHAR 1E6D
ENCODING 7789
SWIDTH 368 0
DWIDTH 7 0
BBX 6 16 1 -4
BITMAP
20
60
60
FC
60
60
60
60
60
64
7C
30
00
30
70
60
ENDCHAR
STARTCHAR 1E6E
ENCODING 7790
SWIDTH 578 0
DWIDTH 11 0
BBX 10 15 0 -3
BITMAP
FFC0
8C40
8C40
0C00
0C00
0C00
0C00
0C00
0C00
0C00
0C00
1E00
0000
3F80
7F80
ENDCHAR
STARTCHAR 1E6F
ENCODING 7791
SWIDTH 368 0
DWIDTH 7 0
BBX 8 15 -1 -3
BITMAP
08
18
18
3F
18
18
18
18
18
19
1F
0C
00
7F
FF
ENDCHAR
STARTCHAR 1E78
ENCODING 7800
SWIDTH 684 0
DWIDTH 13 0
BBX 11 19 1 0
BITMAP
0380
0600
0800
1C80
3F00
2700
0000
F0E0
6040
6040
6040
6040
6040
6040
6040
6040
6080
3080
1F00
ENDCHAR
STARTCHAR 1E79
ENCODING 7801
SWIDTH 578 0
DWIDTH 11 0
BBX 10 18 0 0
BITMAP
0200
0700
0600
0C00
0000
1C80
3F00
2700
0000
E380
6180
6180
6180
6180
6180
6380
7FC0
3980
ENDCHAR
STARTCHAR 1E7A
ENCODING 7802
SWIDTH 684 0
DWIDTH 13 0
BBX 11 19 1 0
BITMAP
1B00
3F00
3B00
0000
3F80
3F80
0000
F0E0
6040
6040
6040
6040
6040
6040
6040
6040
6080
3080
1F00
ENDCHAR
STARTCHAR 1E7B
ENCODING 7803
SWIDTH 578 0
DWIDTH 11 0
BBX 10 16 0 0
BITMAP
3B00
3F00
1200
3F80
3F80
4000
0000
E380
6180
6180
6180
6180
6180
6380
7FC0
3980
ENDCHAR
STARTCHAR 1E7C
ENCODING 7804
SWIDTH 684 0
DWIDTH 13 0
BBX 12 16 0 0
BITMAP
0E40
1F80
1380
0000
F8F0
7060
3040
3840
18C0
1880
1C80
0D80
0F00
0700
0700
0600
ENDCHAR
STARTCHAR 1E7D
ENCODING 7805
SWIDTH 526 0
DWIDTH 10 0
BBX 10 13 0 0
BITMAP
1880
3F00
4600
0000
F1C0
6180
3100
3300
3A00
1A00
1E00
0C00
0800
ENDCHAR
STARTCHAR 1E7E
ENCODING 7806
SWIDTH 684 0
DWIDTH 13 0
BBX 12 16 0 -4
BITMAP
F8F0
7060
3040
3840
18C0
1880
1C80
0D80
0F00
0700
0700
0600
0000
0700
0700
0600
ENDCHAR
STARTCHAR 1E7F
ENCODING 7807
SWIDTH 526 0
DWIDTH 10 0
BBX 10 13 0 -4
BITMAP
F1C0
6180
3100
3300
3A00
1A00
1E00
0C00
0800
0000
0C00
0C00
0C00
ENDCHAR
STARTCHAR 1E80
ENCODING 7808
SWIDTH 842 0
DWIDTH 16 0
BBX 16 16 0 0
BITMAP
0200
0700
00C0
0000
F88F
3186
31C4
31C4
33C4
3A6C
1A6C
1E78
1C38
1C38
0C18
0810
ENDCHAR
STARTCHAR 1E81
ENCODING 7809
SWIDTH 736 0
DWIDTH 14 0
BBX 14 14 0 0
BITMAP
0E00
0600
0300
0100
0080
F13C
6318
3390
3390
35B0
3CE0
1CE0
1860
1840
ENDCHAR
STARTCHAR 1E82
ENCODING 7810
SWIDTH 842 0
DWIDTH 16 0
BBX 16 16 0 0
BITMAP
0060
00E0
0300
0000
F88F
3186
31C4
31C4
33C4
3A6C
1A6C
1E78
1C38
1C38
0C18
0810
ENDCHAR
STARTCHAR 1E83
ENCODING 7811
SWIDTH 736 0
DWIDTH 14 0
BBX 14 14 0 0
BITMAP
01C0
0180
0300
0200
0000
F13C
6318
3390
3390
35B0
3CE0
1CE0
1860
1840
ENDCHAR
STARTCHAR 1E84
ENCODING 7812
SWIDTH 842 0
DWIDTH 16 0
BBX 16 16 0 0
BITMAP
0660
07E0
06C0
0000
F88F
3186
31C4
31C4
33C4
3A6C
1A6C
1E78
1C38
1C38
0C18
0810
ENDCHAR
STARTCHAR 1E85
ENCODING 7813
SWIDTH 736 0
DWIDTH 14 0
BBX 14 13 0 0
BITMAP
0CC0
0FC0
0D80
0000
F13C
6318
3390
3390
35B0
3CE0
1CE0
1860
1840
ENDCHAR
STARTCHAR 1E86
ENCODING 7814
SWIDTH 842 0
DWIDTH 16 0
BBX 16 16 0 0
BITMAP
0180
01C0
0180
0000
F88F
3186
31C4
31C4
33C4
3A6C
1A6C
1E78
1C38
1C38
0C18
0810
ENDCHAR
STARTCHAR 1E87
ENCODING 7815
SWIDTH 736 0
DWIDTH 14 0
BBX 14 13 0 0
BITMAP
0300
0380
0300
0000
F13C
6318
3390
3390
35B0
3CE0
1CE0
1860
1840
ENDCHAR
STARTCHAR 1E88
ENCODING 7816
SWIDTH 842 0
DWIDTH 16 0
BBX 16 16 0 -4
BITMAP
F88F
3186
31C4
31C4
33C4
3A6C
1A6C
1E78
1C38
1C38
0C18
0810
0000
0180
01C0
0180
ENDCHAR
STARTCHAR 1E89
ENCODING 7817
SWIDTH 736 0
DWIDTH 14 0
BBX 14 13 0 -4
BITMAP
F13C
6318
3390
3390
35B0
3CE0
1CE0
1860
1840
0000
0300
0300
0300
ENDCHAR
STARTCHAR 1E8A
ENCODING 7818
SWIDTH 631 0
DWIDTH 12 0
BBX 12 16 0 0
BITMAP
0600
0700
0600
0000
F9E0
30C0
3880
1D00
0F00
0E00
0F00
0B00
1B80
31C0
20E0
F1F0
ENDCHAR
STARTCHAR 1E8B
ENCODING 7819
SWIDTH 526 0
DWIDTH 10 0
BBX 10 13 0 0
BITMAP
0C00
0C00
0C00
0000
FBC0
7100
3A00
1C00
0C00
1E00
3700
2380
F7C0
ENDCHAR
STARTCHAR 1E8C
ENCODING 7820
SWIDTH 631 0
DWIDTH 12 0
BBX 12 16 0 0
BITMAP
1980
1F80
1B00
0000
F9E0
30C0
3880
1D00
0F00
0E00
0F00
0B00
1B80
31C0
20E0
F1F0
ENDCHAR
STARTCHAR 1E8D
ENCODING 7821
SWIDTH 526 0
DWIDTH 10 0
BBX 10 13 0 0
BITMAP
3700
3700
3600
0000
FBC0
7100
3A00
1C00
0C00
1E00
3700
2380
F7C0
ENDCHAR
STARTCHAR 1E8E
ENCODING 7822
SWIDTH 631 0
DWIDTH 12 0
BBX 11 16 0 0
BITMAP
0600
0600
0600
0000
F1E0
30C0
1880
1D80
0D00
0F00
0600
0600
0600
0600
0600
0F00
ENDCHAR
STARTCHAR 1E8F
ENCODING 7823
SWIDTH 526 0
DWIDTH 10 0
BBX 11 17 -1 -4
BITMAP
0600
0700
0600
0000
79E0
3880
1880
1980
0D00
0D00
0E00
0600
0600
0400
0C00
7800
F000
ENDCHAR
STARTCHAR 1E90
ENCODING 7824
SWIDTH 526 0
DWIDTH 10 0
BBX 10 16 0 0
BITMAP
0C00
1E00
3100
0080
7FC0
4380
4300
0700
0600
0E00
1C00
1800
3800
3040
70C0
FFC0
ENDCHAR
STARTCHAR 1E91
ENCODING 7825
SWIDTH 473 0
DWIDTH 9 0
BBX 7 14 1 0
BITMAP
18
38
6C
C2
00
FE
8E
9C
18
38
30
62
E2
FE
ENDCHAR
STARTCHAR 1E92
ENCODING 7826
SWIDTH 526 0
DWIDTH 10 0
BBX 10 16 0 -4
BITMAP
7FC0
4380
4300
0700
0600
0E00
1C00
1800
3800
3040
70C0
FFC0
0000
0E00
0E00
0C00
ENDCHAR
STARTCHAR 1E93
ENCODING 7827
SWIDTH 473 0
DWIDTH 9 0
BBX 7 13 1 -4
BITMAP
FE
8E
9C
18
38
30
62
E2
FE
00
18
38
30
ENDCHAR
STARTCHAR 1E94
ENCODING 7828
SWIDTH 526 0
DWIDTH 10 0
BBX 10 15 0 -3
BITMAP
7FC0
4380
4300
0700
0600
0E00
1C00
1800
3800
3040
70C0
FFC0
0000
3F80
7F80
ENDCHAR
STARTCHAR 1E95
ENCODING 7829
SWIDTH 473 0
DWIDTH 9 0
BBX 8 12 0 -3
BITMAP
7F
47
4E
0C
1C
18
31
71
7F
00
7F
FF
ENDCHAR
STARTCHAR 1E96
ENCODING 7830
SWIDTH 578 0
DWIDTH 11 0
BBX 9 17 1 -3
BITMAP
6000
E000
6000
6000
6000
6600
7F00
7300
6300
6300
6300
6300
6300
F780
0000
7F80
7F00
ENDCHAR
STARTCHAR 1E97
ENCODING 7831
SWIDTH 368 0
DWIDTH 7 0
BBX 7 16 0 0
BITMAP
48
EC
FC
88
10
30
30
7E
30
30
30
30
30
32
3E
18
ENDCHAR
STARTCHAR 1E98
ENCODING 7832
SWIDTH 736 0
DWIDTH 14 0
BBX 14 14 0 0
BITMAP
0300
0480
0480
0700
0000
F13C
6318
3390
3390
35B0
3CE0
1CE0
1860
1840
ENDCHAR
STARTCHAR 1E99
ENCODING 7833
SWIDTH 526 0
DWIDTH 10 0
BBX 11 18 -1 -4
BITMAP
0600
0900
0900
0E00
0000
79E0
3880
1880
1980
0D00
0D00
0E00
0600
0600
0400
0C00
7800
F000
ENDCHAR
STARTCHAR 1EA0
ENCODING 7840
SWIDTH 631 0
DWIDTH 12 0
BBX 12 16 0 -4
BITMAP
0600
0E00
0F00
0B00
1B00
1380
1180
3F80
21C0
20C0
60E0
F1F0
0000
0600
0600
0600
ENDCHAR
STARTCHAR 1EA1
ENCODING 7841
SWIDTH 473 0
DWIDTH 9 0
BBX 8 13 1 -4
BITMAP
3C
66
C6
0E
7E
C6
C6
CF
76
00
18
38
18
ENDCHAR
STARTCHAR 1EA2
ENCODING 7842
SWIDTH 631 0
DWIDTH 12 0
BBX 12 17 0 0
BITMAP
0700
0500
0200
0200
0000
0600
0E00
0F00
0B00
1B00
1380
1180
3F80
21C0
20C0
60E0
F1F0
ENDCHAR
STARTCHAR 1EA3
ENCODING 7843
SWIDTH 473 0
DWIDTH 9 0
BBX 8 14 1 0
BITMAP
18
14
08
18
00
3C
66
C6
0E
7E
C6
C6
CF
76
ENDCHAR
STARTCHAR 1EA4
ENCODING 7844
SWIDTH 631 0
DWIDTH 12 0
BBX 12 20 0 0
BITMAP
0100
0380
0E00
0000
0600
0F00
1080
0000
0600
0E00
0F00
0B00
1B00
1380
1180
3F80
21C0
20C0
60E0
F1F0
ENDCHAR
STARTCHAR 1EA5
ENCODING 7845
SWIDTH 473 0
DWIDTH 9 0
BBX 8 18 1 0
BITMAP
0E
1C
10
20
18
3C
6C
42
00
3C
66
C6
0E
7E
C6
C6
CF
76
ENDCHAR
STARTCHAR 1EA6
ENCODING 7846
SWIDTH 631 0
DWIDTH 12 0
BBX 12 20 0 0
BITMAP
0800
1C00
0600
0100
0600
0F00
1080
0000
0600
0E00
0F00
0B00
1B00
1380
1180
3F80
21C0
20C0
60E0
F1F0
ENDCHAR
STARTCHAR 1EA7
ENCODING 7847
SWIDTH 473 0
DWIDTH 9 0
BBX 8 18 1 0
BITMAP
70
30
18
08
18
3C
6C
42
00
3C
66
C6
0E
7E
C6
C6
CF
76
ENDCHAR
STARTCHAR 1EA8
ENCODING 7848
SWIDTH 631 0
DWIDTH 12 0
BBX 12 21 0 0
BITMAP
0200
0500
0200
0200
0000
0600
0F00
1080
0000
0600
0E00
0F00
0B00
1B00
1380
1180
3F80
21C0
20C0
60E0
F1F0
ENDCHAR
STARTCHAR 1EA9
ENCODING 7849
SWIDTH 473 0
DWIDTH 9 0
BBX 8 18 1 0
BITMAP
1C
28
08
18
18
3C
6C
42
00
3C
66
C6
0E
7E
C6
C6
CF
76
ENDCHAR
STARTCHAR 1EAA
ENCODING 7850
SWIDTH 631 0
DWIDTH 12 0
BBX 12 20 0 0
BITMAP
0C80
1FC0
3700
0000
0600
0F00
1080
0000
0600
0E00
0F00
0B00
1B00
1380
1180
3F80
21C0
20C0
60E0
F1F0
ENDCHAR
STARTCHAR 1EAB
ENCODING 7851
SWIDTH 473 0
DWIDTH 9 0
BBX 8 17 1 0
BITMAP
7A
7E
8C
18
3C
6C
42
00
3C
66
C6
0E
7E
C6
C6
CF
76
ENDCHAR
STARTCHAR 1EAC
ENCODING 7852
SWIDTH 631 0
DWIDTH 12 0
BBX 12 20 0 -4
BITMAP
0600
0F00
1080
0000
0600
0E00
0F00
0B00
1B00
1380
1180
3F80
21C0
20C0
60E0
F1F0
0000
0600
0600
0600
ENDCHAR
STARTCHAR 1EAD
ENCODING 7853
SWIDTH 473 0
DWIDTH 9 0
BBX 8 18 1 -4
BITMAP
18
3C
6C
42
00
3C
66
C6
0E
7E
C6
C6
CF
76
00
18
38
18
ENDCHAR
STARTCHAR 1EAE
ENCODING 7854
SWIDTH 631 0
DWIDTH 12 0
BBX 12 19 0 0
BITMAP
0180
0700
0C00
1080
1F80
0F00
0000
0600
0E00
0F00
0B00
1B00
1380
1180
3F80
21C0
20C0
60E0
F1F0
ENDCHAR
STARTCHAR 1EAF
ENCODING 7855
SWIDTH 473 0
DWIDTH 9 0
BBX 8 17 1 0
BITMAP
0E
1C
18
30
42
FE
3C
00
3C
66
C6
0E
7E
C6
C6
CF
76
ENDCHAR
STARTCHAR 1EB0
ENCODING 7856
SWIDTH 631 0
DWIDTH 12 0
BBX 12 19 0 0
BITMAP
1800
0C00
0300
1080
1F80
0F00
0000
0600
0E00
0F00
0B00
1B00
1380
1180
3F80
21C0
20C0
60E0
F1F0
ENDCHAR
STARTCHAR 1EB1
ENCODING 7857
SWIDTH 473 0
DWIDTH 9 0
BBX 8 17 1 0
BITMAP
70
30
18
08
42
FE
3C
00
3C
66
C6
0E
7E
C6
C6
CF
76
ENDCHAR
STARTCHAR 1EB2
ENCODING 7858
SWIDTH 631 0
DWIDTH 12 0
BBX 12 20 0 0
BITMAP
0700
0500
0200
0200
1080
1F80
0F00
0000
0600
0E00
0F00
0B00
1B00
1380
1180
3F80
21C0
20C0
60E0
F1F0
ENDCHAR
STARTCHAR 1EB3
ENCODING 7859
SWIDTH 473 0
DWIDTH 9 0
BBX 8 17 1 0
BITMAP
1C
14
08
18
42
FE
3C
00
3C
66
C6
0E
7E
C6
C6
CF
76
ENDCHAR
STARTCHAR 1EB4
ENCODING 7860
SWIDTH 631 0
DWIDTH 12 0
BBX 12 19 0 0
BITMAP
0CC0
1F80
2380
1180
1F00
0E00
0000
0600
0E00
0F00
0B00
1B00
1380
1180
3F80
21C0
20C0
60E0
F1F0
ENDCHAR
STARTCHAR 1EB5
ENCODING 7861
SWIDTH 473 0
DWIDTH 9 0
BBX 8 16 1 0
BITMAP
72
7E
8C
42
FE
3C
00
3C
66
C6
0E
7E
C6
C6
CF
76
ENDCHAR
STARTCHAR 1EB6
ENCODING 7862
SWIDTH 631 0
DWIDTH 12 0
BBX 12 20 0 -4
BITMAP
1080
1F80
0F00
0000
0600
0E00
0F00
0B00
1B00
1380
1180
3F80
21C0
20C0
60E0
F1F0
0000
0600
0600
0600
ENDCHAR
STARTCHAR 1EB7
ENCODING 7863
SWIDTH 473 0
DWIDTH 9 0
BBX 8 17 1 -4
BITMAP
42
FE
3C
00
3C
66
C6
0E
7E
C6
C6
CF
76
00
18
38
18
ENDCHAR
STARTCHAR 1EB8
ENCODING 7864
SWIDTH 526 0
DWIDTH 10 0
BBX 10 16 0 -4
BITMAP
FF80
3080
3080
3000
3000
3F00
3200
3000
3000
3040
3080
FF80
0000
0C00
0E00
0C00
ENDCHAR
STARTCHAR 1EB9
ENCODING 7865
SWIDTH 473 0
DWIDTH 9 0
BBX 7 13 1 -4
BITMAP
3C
64
C6
C6
FE
C0
E2
7C
38
00
18
18
18
ENDCHAR
STARTCHAR 1EBA
ENCODING 7866
SWIDTH 526 0
DWIDTH 10 0
BBX 10 17 0 0
BITMAP
0600
0A00
0400
0400
0000
FF80
3080
3080
3000
3000
3F00
3200
3000
3000
3040
3080
FF80
ENDCHAR
STARTCHAR 1EBB
ENCODING 7867
SWIDTH 473 0
DWIDTH 9 0
BBX 7 14 1 0
BITMAP
0C
14
08
08
00
3C
64
C6
C6
FE
C0
E2
7C
38
ENDCHAR
STARTCHAR 1EBC
ENCODING 7868
SWIDTH 526 0
DWIDTH 10 0
BBX 10 16 0 0
BITMAP
1880
3F00
4600
0000
FF80
3080
3080
3000
3000
3F00
3200
3000
3000
3040
3080
FF80
ENDCHAR
STARTCHAR 1EBD
ENCODING 7869
SWIDTH 473 0
DWIDTH 9 0
BBX 8 13 1 0
BITMAP
31
7E
8C
00
3C
64
C6
C6
FE
C0
E2
7C
38
ENDCHAR
STARTCHAR 1EBE
ENCODING 7870
SWIDTH 526 0
DWIDTH 10 0
BBX 10 20 0 0
BITMAP
0200
0700
0C00
1000
0C00
1E00
2100
0000
FF80
3080
3080
3000
3000
3F00
3200
3000
3000
3040
3080
FF80
ENDCHAR
STARTCHAR 1EBF
ENCODING 7871
SWIDTH 473 0
DWIDTH 9 0
BBX 7 18 1 0
BITMAP
0E
0C
18
10
18
3C
64
42
00
3C
64
C6
C6
FE
C0
E2
7C
38
ENDCHAR
STARTCHAR 1EC0
ENCODING 7872
SWIDTH 526 0
DWIDTH 10 0
BBX 10 20 0 0
BITMAP
1000
3800
0C00
0200
0C00
1E00
2100
0000
FF80
3080
3080
3000
3000
3F00
3200
3000
3000
3040
3080
FF80
ENDCHAR
STARTCHAR 1EC1
ENCODING 7873
SWIDTH 473 0
DWIDTH 9 0
BBX 7 18 1 0
BITMAP
70
38
18
08
18
3C
64
42
00
3C
64
C6
C6
FE
C0
E2
7C
38
ENDCHAR
STARTCHAR 1EC2
ENCODING 7874
SWIDTH 526 0
DWIDTH 10 0
BBX 10 21 0 0
BITMAP
0400
0A00
0200
0400
0000
0C00
1E00
2100
0000
FF80
3080
3080
3000
3000
3F00
3200
3000
3000
3040
3080
FF80
ENDCHAR
STARTCHAR 1EC3
ENCODING 7875
SWIDTH 473 0
DWIDTH 9 0
BBX 7 18 1 0
BITMAP
1C
24
08
08
18
3C
64
42
00
3C
64
C6
C6
FE
C0
E2
7C
38
ENDCHAR
STARTCHAR 1EC4
ENCODING 7876
SWIDTH 526 0
DWIDTH 10 0
BBX 10 20 0 0
BITMAP
1900
3F80
2F00
4000
0C00
1E00
2100
0000
FF80
3080
3080
3000
3000
3F00
3200
3000
3000
3040
3080
FF80
ENDCHAR
STARTCHAR 1EC5
ENCODING 7877
SWIDTH 473 0
DWIDTH 9 0
BBX 8 17 1 0
BITMAP
7B
7E
84
18
3C
64
42
00
3C
64
C6
C6
FE
C0
E2
7C
38
ENDCHAR
STARTCHAR 1EC6
ENCODING 7878
SWIDTH 526 0
DWIDTH 10 0
BBX 10 20 0 -4
BITMAP
0C00
1E00
2100
0000
FF80
3080
3080
3000
3000
3F00
3200
3000
3000
3040
3080
FF80
0000
0C00
0E00
0C00
ENDCHAR
STARTCHAR 1EC7
ENCODING 7879
SWIDTH 473 0
DWIDTH 9 0
BBX 7 18 1 -4
BITMAP
18
3C
64
42
00
3C
64
C6
C6
FE
C0
E2
7C
38
00
18
18
18
ENDCHAR
STARTCHAR 1EC8
ENCODING 7880
SWIDTH 315 0
DWIDTH 6 0
BBX 4 17 1 0
BITMAP
30
50
20
20
00
F0
60
60
60
60
60
60
60
60
60
60
F0
ENDCHAR
STARTCHAR 1EC9
ENCODING 7881
SWIDTH 315 0
DWIDTH 6 0
BBX 4 14 1 0
BITMAP
70
50
20
20
00
60
E0
60
60
60
60
60
60
F0
ENDCHAR
STARTCHAR 1ECA
ENCODING 7882
SWIDTH 315 0
DWIDTH 6 0
BBX 4 16 1 -4
BITMAP
F0
60
60
60
60
60
60
60
60
60
60
F0
00
60
70
60
ENDCHAR
STARTCHAR 1ECB
ENCODING 7883
SWIDTH 315 0
DWIDTH 6 0
BBX 4 16 1 -4
BITMAP
30
70
00
60
E0
60
60
60
60
60
60
F0
00
60
60
60
ENDCHAR
STARTCHAR 1ECC
ENCODING 7884
SWIDTH 631 0
DWIDTH 12 0
BBX 10 16 1 -4
BITMAP
1E00
2180
4180
40C0
C0C0
C0C0
C0C0
C0C0
C080
6080
6100
1E00
0000
0C00
0C00
0C00
ENDCHAR
STARTCHAR 1ECD
ENCODING 7885
SWIDTH 526 0
DWIDTH 10 0
BBX 8 13 1 -4
BITMAP
3C
46
C3
C3
C3
C3
C2
62
3C
00
1C
1C
18
ENDCHAR
STARTCHAR 1ECE
ENCODING 7886
SWIDTH 631 0
DWIDTH 12 0
BBX 10 17 1 0
BITMAP
0600
0A00
0400
0400
0000
1E00
2180
4180
40C0
C0C0
C0C0
C0C0
C0C0
C080
6080
6100
1E00
ENDCHAR
STARTCHAR 1ECF
ENCODING 7887
SWIDTH 526 0
DWIDTH 10 0
BBX 8 14 1 0
BITMAP
0C
1C
08
08
04
3C
46
C3
C3
C3
C3
C2
62
3C
ENDCHAR
STARTCHAR 1ED0
ENCODING 7888
SWIDTH 631 0
DWIDTH 12 0
BBX 10 20 1 0
BITMAP
0200
0700
1C00
0000
0C00
1E00
2100
0000
1E00
2180
4180
40C0
C0C0
C0C0
C0C0
C0C0
C080
6080
6100
1E00
ENDCHAR
STARTCHAR 1ED1
ENCODING 7889
SWIDTH 526 0
DWIDTH 10 0
BBX 8 18 1 0
BITMAP
0E
0C
18
10
18
3C
26
42
00
3C
46
C3
C3
C3
C3
C2
62
3C
ENDCHAR
STARTCHAR 1ED2
ENCODING 7890
SWIDTH 631 0
DWIDTH 12 0
BBX 10 20 1 0
BITMAP
1000
3800
0C00
0200
0C00
1E00
2100
0000
1E00
2180
4180
40C0
C0C0
C0C0
C0C0
C0C0
C080
6080
6100
1E00
ENDCHAR
STARTCHAR 1ED3
ENCODING 7891
SWIDTH 526 0
DWIDTH 10 0
BBX 8 18 1 0
BITMAP
70
18
08
0C
18
3C
26
42
00
3C
46
C3
C3
C3
C3
C2
62
3C
ENDCHAR
STARTCHAR 1ED4
ENCODING 7892
SWIDTH 631 0
DWIDTH 12 0
BBX 10 21 1 0
BITMAP
0400
0A00
0400
0400
0000
0C00
1E00
2100
0000
1E00
2180
4180
40C0
C0C0
C0C0
C0C0
C0C0
C080
6080
6100
1E00
ENDCHAR
STARTCHAR 1ED5
ENCODING 7893
SWIDTH 526 0
DWIDTH 10 0
BBX 8 18 1 0
BITMAP
1C
24
08
0C
18
3C
26
42
00
3C
46
C3
C3
C3
C3
C2
62
3C
ENDCHAR
STARTCHAR 1ED6
ENCODING 7894
SWIDTH 631 0
DWIDTH 12 0
BBX 10 20 1 0
BITMAP
1900
3F80
2F00
4000
0C00
1E00
2100
0000
1E00
2180
4180
40C0
C0C0
C0C0
C0C0
C0C0
C080
6080
6100
1E00
ENDCHAR
STARTCHAR 1ED7
ENCODING 7895
SWIDTH 526 0
DWIDTH 10 0
BBX 8 17 1 0
BITMAP
3B
5E
84
18
3C
26
42
00
3C
46
C3
C3
C3
C3
C2
62
3C
ENDCHAR
STARTCHAR 1ED8
ENCODING 7896
SWIDTH 631 0
DWIDTH 12 0
BBX 10 20 1 -4
BITMAP
0C00
1E00
2100
0000
1E00
2180
4180
40C0
C0C0
C0C0
C0C0
C0C0
C080
6080
6100
1E00
0000
0C00
0C00
0C00
ENDCHAR
STARTCHAR 1ED9
ENCODING 7897
SWIDTH 526 0
DWIDTH 10 0
BBX 8 18 1 -4
BITMAP
18
3C
26
42
00
3C
46
C3
C3
C3
C3
C2
62
3C
00
1C
1C
18
ENDCHAR
STARTCHAR 1EDA
ENCODING 7898
SWIDTH 631 0
DWIDTH 12 0
BBX 11 16 1 0
BITMAP
0200
0F00
1840
00E0
1EC0
2180
4180
40C0
C0C0
C0C0
C0C0
C0C0
C080
6080
6100
1E00
ENDCHAR
STARTCHAR 1EDB
ENCODING 7899
SWIDTH 578 0
DWIDTH 11 0
BBX 10 14 1 0
BITMAP
0600
0E00
0800
10C0
01C0
1EC0
6700
4300
C300
C300
C300
C200
6200
3C00
ENDCHAR
STARTCHAR 1EDC
ENCODING 7900
SWIDTH 631 0
DWIDTH 12 0
BBX 11 16 1 0
BITMAP
3000
3800
0440
02E0
1EC0
2180
4180
40C0
C0C0
C0C0
C0C0
C0C0
C080
6080
6100
1E00
ENDCHAR
STARTCHAR 1EDD
ENCODING 7901
SWIDTH 578 0
DWIDTH 11 0
BBX 10 14 1 0
BITMAP
3000
7800
1800
0CC0
01C0
1EC0
6700
4300
C300
C300
C300
C200
6200
3C00
ENDCHAR
STARTCHAR 1EDE
ENCODING 7902
SWIDTH 631 0
DWIDTH 12 0
BBX 11 17 1 0
BITMAP
0E00
0A00
0400
0440
00E0
1EC0
2180
4180
40C0
C0C0
C0C0
C0C0
C0C0
C080
6080
6100
1E00
ENDCHAR
STARTCHAR 1EDF
ENCODING 7903
SWIDTH 578 0
DWIDTH 11 0
BBX 10 14 1 0
BITMAP
0C00
1C00
0C00
08C0
05C0
1EC0
6700
4300
C300
C300
C300
C200
6200
3C00
ENDCHAR
STARTCHAR 1EE0
ENCODING 7904
SWIDTH 631 0
DWIDTH 12 0
BBX 11 16 1 0
BITMAP
1900
3F00
4640
00E0
1EC0
2180
4180
40C0
C0C0
C0C0
C0C0
C0C0
C080
6080
6100
1E00
ENDCHAR
STARTCHAR 1EE1
ENCODING 7905
SWIDTH 578 0
DWIDTH 11 0
BBX 10 13 1 0
BITMAP
3900
7E00
4EC0
01C0
1EC0
6700
4300
C300
C300
C300
C200
6200
3C00
ENDCHAR
STARTCHAR 1EE2
ENCODING 7906
SWIDTH 631 0
DWIDTH 12 0
BBX 11 18 1 -4
BITMAP
0040
00E0
1EC0
2180
4180
40C0
C0C0
C0C0
C0C0
C0C0
C080
6080
6100
1E00
0000
0C00
0C00
0C00
ENDCHAR
STARTCHAR 1EE3
ENCODING 7907
SWIDTH 578 0
DWIDTH 11 0
BBX 10 15 1 -4
BITMAP
00C0
01C0
1EC0
6700
4300
C300
C300
C300
C200
6200
3C00
0000
0C00
1C00
1800
ENDCHAR
STARTCHAR 1EE4
ENCODING 7908
SWIDTH 684 0
DWIDTH 13 0
BBX 11 16 1 -4
BITMAP
F0E0
6040
6040
6040
6040
6040
6040
6040
6040
6080
3080
1F00
0000
0600
0E00
0C00
ENDCHAR
STARTCHAR 1EE5
ENCODING 7909
SWIDTH 578 0
DWIDTH 11 0
BBX 10 13 0 -4
BITMAP
E380
6180
6180
6180
6180
6180
6380
7FC0
3980
0000
0600
0E00
0C00
ENDCHAR
STARTCHAR 1EE6
ENCODING 7910
SWIDTH 684 0
DWIDTH 13 0
BBX 11 17 1 0
BITMAP
0600
0E00
0200
0600
0000
F0E0
6040
6040
6040
6040
6040
6040
6040
6040
6080
3080
1F00
ENDCHAR
STARTCHAR 1EE7
ENCODING 7911
SWIDTH 578 0
DWIDTH 11 0
BBX 10 14 0 0
BITMAP
0600
0E00
0200
0400
0200
E380
6180
6180
6180
6180
6180
6380
7FC0
3980
ENDCHAR
STARTCHAR 1EE8
ENCODING 7912
SWIDTH 736 0
DWIDTH 14 0
BBX 13 16 1 0
BITMAP
0100
0780
0C18
0038
F0F0
6060
6040
6040
6040
6040
6040
6040
6040
6040
3080
1F00
ENDCHAR
STARTCHAR 1EE9
ENCODING 7913
SWIDTH 684 0
DWIDTH 13 0
BBX 12 14 1 0
BITMAP
0600
0E00
0800
1030
0070
E720
63C0
6300
6300
6300
6300
6300
7F80
3B00
ENDCHAR
STARTCHAR 1EEA
ENCODING 7914
SWIDTH 736 0
DWIDTH 14 0
BBX 13 16 1 0
BITMAP
1800
3C00
0218
0038
F0F0
6060
6040
6040
6040
6040
6040
6040
6040
6040
3080
1F00
ENDCHAR
STARTCHAR 1EEB
ENCODING 7915
SWIDTH 684 0
DWIDTH 13 0
BBX 12 14 1 0
BITMAP
3000
7800
1800
0C30
0070
E720
63C0
6300
6300
6300
6300
6300
7F80
3B00
ENDCHAR
STARTCHAR 1EEC
ENCODING 7916
SWIDTH 736 0
DWIDTH 14 0
BBX 13 17 1 0
BITMAP
0600
0600
0200
0618
0038
F0F0
6060
6040
6040
6040
6040
6040
6040
6040
6040
3080
1F00
ENDCHAR
STARTCHAR 1EED
ENCODING 7917
SWIDTH 684 0
DWIDTH 13 0
BBX 12 14 1 0
BITMAP
0C00
1C00
0400
0830
0470
E720
63C0
6300
6300
6300
6300
6300
7F80
3B00
ENDCHAR
STARTCHAR 1EEE
ENCODING 7918
SWIDTH 736 0
DWIDTH 14 0
BBX 13 16 1 0
BITMAP
1C80
1F80
2718
0038
F0F0
6060
6040
6040
6040
6040
6040
6040
6040
6040
3080
1F00
ENDCHAR
STARTCHAR 1EEF
ENCODING 7919
SWIDTH 684 0
DWIDTH 13 0
BBX 12 13 1 0
BITMAP
3900
7E00
4E30
0070
E720
63C0
6300
6300
6300
6300
6300
7F80
3B00
ENDCHAR
STARTCHAR 1EF0
ENCODING 7920
SWIDTH 736 0
DWIDTH 14 0
BBX 13 18 1 -4
BITMAP
0018
0038
F0F0
6060
6040
6040
6040
6040
6040
6040
6040
6040
3080
1F00
0000
0600
0E00
0600
ENDCHAR
STARTCHAR 1EF1
ENCODING 7921
SWIDTH 684 0
DWIDTH 13 0
BBX 12 15 1 -4
BITMAP
0030
0070
E720
63C0
6300
6300
6300
6300
6300
7F80
3B00
0000
0C00
1C00
1800
ENDCHAR
STARTCHAR 1EF2
ENCODING 7922
SWIDTH 631 0
DWIDTH 12 0
BBX 11 16 0 0
BITMAP
1800
1C00
0200
0100
F1E0
30C0
1880
1D80
0D00
0F00
0600
0600
0600
0600
0600
0F00
ENDCHAR
STARTCHAR 1EF3
ENCODING 7923
SWIDTH 526 0
DWIDTH 10 0
BBX 11 18 -1 -4
BITMAP
1C00
0C00
0600
0200
0100
79E0
3880
1880
1980
0D00
0D00
0E00
0600
0600
0400
0C00
7800
F000
ENDCHAR
STARTCHAR 1EF4
ENCODING 7924
SWIDTH 631 0
DWIDTH 12 0
BBX 11 16 0 -4
BITMAP
F1E0
30C0
1880
1D80
0D00
0F00
0600
0600
0600
0600
0600
0F00
0000
0600
0600
0600
ENDCHAR
STARTCHAR 1EF5
ENCODING 7925
SWIDTH 526 0
DWIDTH 10 0
BBX 11 13 -1 -4
BITMAP
79E0
3880
1880
1980
0D00
0D00
0E00
0600
0600
0400
0CC0
79C0
F0C0
ENDCHAR
STARTCHAR 1EF6
ENCODING 7926
SWIDTH 631 0
DWIDTH 12 0
BBX 11 17 0 0
BITMAP
0600
0500
0200
0200
0000
F1E0
30C0
1880
1D80
0D00
0F00
0600
0600
0600
0600
0600
0F00
ENDCHAR
STARTCHAR 1EF7
ENCODING 7927
SWIDTH 526 0
DWIDTH 10 0
BBX 11 18 -1 -4
BITMAP
0300
0500
0200
0200
0000
79E0
3880
1880
1980
0D00
0D00
0E00
0600
0600
0400
0C00
7800
F000
ENDCHAR
STARTCHAR 1EF8
ENCODING 7928
SWIDTH 631 0
DWIDTH 12 0
BBX 11 16 0 0
BITMAP
0C80
1F80
2300
0000
F1E0
30C0
1880
1D80
0D00
0F00
0600
0600
0600
0600
0600
0F00
ENDCHAR
STARTCHAR 1EF9
ENCODING 7929
SWIDTH 526 0
DWIDTH 10 0
BBX 11 17 -1 -4
BITMAP
0C40
1F80
2300
0000
79E0
3880
1880
1980
0D00
0D00
0E00
0600
0600
0400
0C00
7800
F000
ENDCHAR
STARTCHAR 2011
ENCODING 8209
SWIDTH 368 0
DWIDTH 7 0
BBX 6 1 0 4
BITMAP
FC
ENDCHAR
STARTCHAR 2013
ENCODING 8211
SWIDTH 473 0
DWIDTH 9 0
BBX 9 1 0 4
BITMAP
FF80
ENDCHAR
STARTCHAR 2014
ENCODING 8212
SWIDTH 789 0
DWIDTH 15 0
BBX 15 1 0 4
BITMAP
FFFE
ENDCHAR
STARTCHAR 2018
ENCODING 8216
SWIDTH 263 0
DWIDTH 5 0
BBX 2 6 2 7
BITMAP
80
80
80
80
C0
80
ENDCHAR
STARTCHAR 2019
ENCODING 8217
SWIDTH 263 0
DWIDTH 5 0
BBX 2 6 1 8
BITMAP
40
C0
40
40
40
40
ENDCHAR
STARTCHAR 201A
ENCODING 8218
SWIDTH 263 0
DWIDTH 5 0
BBX 2 6 1 -3
BITMAP
40
C0
40
40
40
40
ENDCHAR
STARTCHAR 201C
ENCODING 8220
SWIDTH 473 0
DWIDTH 9 0
BBX 7 6 1 7
BITMAP
82
84
84
84
C6
84
ENDCHAR
STARTCHAR 201D
ENCODING 8221
SWIDTH 473 0
DWIDTH 9 0
BBX 7 6 1 8
BITMAP
82
C6
42
42
82
82
ENDCHAR
STARTCHAR 201E
ENCODING 8222
SWIDTH 473 0
DWIDTH 9 0
BBX 7 6 1 -3
BITMAP
82
C6
42
42
82
82
ENDCHAR
STARTCHAR 2020
ENCODING 8224
SWIDTH 473 0
DWIDTH 9 0
BBX 8 14 0 0
BITMAP
08
18
08
6B
7F
8A
08
1C
08
08
08
08
08
08
ENDCHAR
STARTCHAR 2021
ENCODING 8225
SWIDTH 473 0
DWIDTH 9 0
BBX 9 14 0 0
BITMAP
0C00
1800
0800
6B80
7F00
8A00
0800
1C00
4900
7F80
EB00
0800
0C00
0800
ENDCHAR
STARTCHAR 2022
ENCODING 8226
SWIDTH 263 0
DWIDTH 5 0
BBX 4 4 1 4
BITMAP
E0
F0
F0
E0
ENDCHAR
STARTCHAR 2026
ENCODING 8230
SWIDTH 842 0
DWIDTH 16 0
BBX 14 3 1 0
BITMAP
E70C
E71C
C61C
ENDCHAR
STARTCHAR 2030
ENCODING 8240
SWIDTH 1052 0
DWIDTH 20 0
BBX 18 12 1 0
BITMAP
702000
904000
888000
898000
8B0000
920000
65E380
0D1440
191440
111440
211440
60E380
ENDCHAR
STARTCHAR 2039
ENCODING 8249
SWIDTH 315 0
DWIDTH 6 0
BBX 4 9 1 0
BITMAP
10
20
60
C0
C0
C0
60
20
10
ENDCHAR
STARTCHAR 203A
ENCODING 8250
SWIDTH 315 0
DWIDTH 6 0
BBX 4 9 1 0
BITMAP
80
40
60
30
30
30
60
40
80
ENDCHAR
STARTCHAR 2044
ENCODING 8260
SWIDTH 631 0
DWIDTH 12 0
BBX 10 11 1 0
BITMAP
00C0
0080
0100
0300
0600
0400
0800
1000
3000
6000
C000
ENDCHAR
STARTCHAR 20AC
ENCODING 8364
SWIDTH 526 0
DWIDTH 10 0
BBX 9 11 0 0
BITMAP
0F80
3180
3100
7000
7E00
E000
FE00
7000
3000
3880
1F00
ENDCHAR
STARTCHAR 2122
ENCODING 8482
SWIDTH 631 0
DWIDTH 12 0
BBX 12 5 0 7
BITMAP
FE20
AE60
25A0
25A0
7F70
ENDCHAR
STARTCHAR 2126
ENCODING 8486
SWIDTH 684 0
DWIDTH 13 0
BBX 11 12 1 0
BITMAP
1F00
20C0
4060
C060
C060
C060
C060
4040
A0A0
A120
F1E0
F1E0
ENDCHAR
STARTCHAR 2202
ENCODING 8706
SWIDTH 526 0
DWIDTH 10 0
BBX 8 13 1 0
BITMAP
3C
46
03
03
3F
47
43
C3
C3
C3
C2
66
3C
ENDCHAR
STARTCHAR 2205
ENCODING 8709
SWIDTH 684 0
DWIDTH 13 0
BBX 13 14 0 -1
BITMAP
0018
07B0
18E0
20E0
21B0
4190
4310
4610
4C10
6C20
3820
38C0
6F00
C000
ENDCHAR
STARTCHAR 2206
ENCODING 8710
SWIDTH 631 0
DWIDTH 12 0
BBX 11 12 0 0
BITMAP
0600
0E00
0E00
1F00
1B00
1380
3180
2180
21C0
60C0
40E0
FFE0
ENDCHAR
STARTCHAR 220F
ENCODING 8719
SWIDTH 684 0
DWIDTH 13 0
BBX 11 12 1 0
BITMAP
FFE0
60C0
60C0
60C0
60C0
60C0
60C0
60C0
60C0
60C0
60C0
F1E0
ENDCHAR
STARTCHAR 2211
ENCODING 8721
SWIDTH 526 0
DWIDTH 10 0
BBX 10 12 0 0
BITMAP
7F80
7080
3880
1800
1C00
0C00
0C00
1800
1040
2040
7FC0
FFC0
ENDCHAR
STARTCHAR 2212
ENCODING 8722
SWIDTH 421 0
DWIDTH 8 0
BBX 8 1 0 5
BITMAP
FF
ENDCHAR
STARTCHAR 2219
ENCODING 8729
SWIDTH 210 0
DWIDTH 4 0
BBX 3 3 0 5
BITMAP
E0
E0
C0
ENDCHAR
STARTCHAR 221A
ENCODING 8730
SWIDTH 631 0
DWIDTH 12 0
BBX 12 13 0 0
BITMAP
0070
0040
0040
0080
E080
F080
3180
3900
1900
1F00
0E00
0E00
0400
ENDCHAR
STARTCHAR 221E
ENCODING 8734
SWIDTH 684 0
DWIDTH 13 0
BBX 11 6 1 2
BITMAP
39C0
DF20
8E20
9F20
FFC0
7380
ENDCHAR
STARTCHAR 222B
ENCODING 8747
SWIDTH 315 0
DWIDTH 6 0
BBX 10 18 -2 -4
BITMAP
03C0
0480
0C00
0C00
0C00
0C00
0C00
0C00
0C00
0C00
0C00
0C00
0C00
0C00
0C00
4C00
F800
F000
ENDCHAR
STARTCHAR 2248
ENCODING 8776
SWIDTH 473 0
DWIDTH 9 0
BBX 8 5 0 3
BITMAP
7F
C0
00
79
CE
ENDCHAR
STARTCHAR 2260
ENCODING 8800
SWIDTH 473 0
DWIDTH 9 0
BBX 8 8 0 1
BITMAP
03
06
7F
88
18
7F
A0
60
ENDCHAR
STARTCHAR 2264
ENCODING 8804
SWIDTH 473 0
DWIDTH 9 0
BBX 8 8 0 2
BITMAP
03
0F
78
70
BC
07
00
FF
ENDCHAR
STARTCHAR 2265
ENCODING 8805
SWIDTH 473 0
DWIDTH 9 0
BBX 8 8 0 2
BITMAP
60
FC
0F
0F
3C
60
80
FF
ENDCHAR
STARTCHAR 25CA
ENCODING 9674
SWIDTH 368 0
DWIDTH 7 0
BBX 7 12 0 0
BITMAP
10
38
38
6C
4C
C6
C6
64
6C
38
38
10
ENDCHAR
STARTCHAR 25CC
ENCODING 9676
SWIDTH 526 0
DWIDTH 10 0
BBX 8 9 1 0
BITMAP
10
24
42
81
81
00
81
42
34
ENDCHAR
STARTCHAR 2C60
ENCODING 11360
SWIDTH 526 0
DWIDTH 10 0
BBX 8 12 1 0
BITMAP
F0
60
60
60
60
FC
60
FC
60
61
61
FF
ENDCHAR
STARTCHAR 2C61
ENCODING 11361
SWIDTH 368 0
DWIDTH 7 0
BBX 6 14 1 0
BITMAP
70
B0
30
30
30
FC
30
30
FC
30
30
30
30
F8
ENDCHAR
STARTCHAR 2C62
ENCODING 11362
SWIDTH 526 0
DWIDTH 10 0
BBX 9 12 0 0
BITMAP
7800
3000
3000
3000
3000
F600
BC00
3000
3000
3080
3080
7F80
ENDCHAR
STARTCHAR A789
ENCODING 42889
SWIDTH 263 0
DWIDTH 5 0
BBX 3 7 1 1
BITMAP
E0
E0
C0
00
E0
E0
C0
ENDCHAR
STARTCHAR A78A
ENCODING 42890
SWIDTH 368 0
DWIDTH 7 0
BBX 6 3 0 3
BITMAP
7C
80
FC
ENDCHAR
STARTCHAR A78B
ENCODING 42891
SWIDTH 263 0
DWIDTH 5 0
BBX 3 9 1 6
BITMAP
60
E0
E0
E0
60
60
40
40
40
ENDCHAR
STARTCHAR A78C
ENCODING 42892
SWIDTH 263 0
DWIDTH 5 0
BBX 3 8 1 6
BITMAP
60
E0
E0
60
60
60
40
40
ENDCHAR
STARTCHAR F130
ENCODING 61744
SWIDTH 157 0
DWIDTH 3 0
BBX 3 3 0 -3
BITMAP
E0
20
20
ENDCHAR
STARTCHAR F131
ENCODING 61745
SWIDTH 157 0
DWIDTH 3 0
BBX 3 3 0 -3
BITMAP
E0
80
80
ENDCHAR
STARTCHAR F195
ENCODING 61845
SWIDTH 210 0
DWIDTH 4 0
BBX 4 4 0 10
BITMAP
E0
60
30
10
ENDCHAR
STARTCHAR F197
ENCODING 61847
SWIDTH 210 0
DWIDTH 4 0
BBX 4 4 0 10
BITMAP
30
70
40
80
ENDCHAR
STARTCHAR F1C8
ENCODING 61896
SWIDTH 315 0
DWIDTH 6 0
BBX 5 6 0 8
BITMAP
70
88
88
10
20
20
ENDCHAR
STARTCHAR F1E9
ENCODING 61929
SWIDTH 263 0
DWIDTH 5 0
BBX 3 7 1 1
BITMAP
E0
E0
C0
00
E0
E0
C0
ENDCHAR
STARTCHAR F1EA
ENCODING 61930
SWIDTH 368 0
DWIDTH 7 0
BBX 6 3 0 3
BITMAP
7C
80
FC
ENDCHAR
STARTCHAR F20E
ENCODING 61966
SWIDTH 368 0
DWIDTH 7 0
BBX 6 14 1 0
BITMAP
70
B0
30
30
30
FC
30
30
FC
30
30
30
30
F8
ENDCHAR
STARTCHAR F20F
ENCODING 61967
SWIDTH 526 0
DWIDTH 10 0
BBX 8 12 1 0
BITMAP
F0
60
60
60
60
FC
60
FC
60
61
61
FF
ENDCHAR
STARTCHAR F211
ENCODING 61969
SWIDTH 526 0
DWIDTH 10 0
BBX 12 13 1 -4
BITMAP
1D00
6700
C300
C300
C300
C300
C700
7F00
3B00
0300
0330
0330
01E0
ENDCHAR
STARTCHAR F212
ENCODING 61970
SWIDTH 684 0
DWIDTH 13 0
BBX 14 16 1 -4
BITMAP
1E80
2380
4180
4180
C180
C180
C180
C180
C180
6380
7D80
3980
0180
018C
018C
00F0
ENDCHAR
STARTCHAR F218
ENCODING 61976
SWIDTH 684 0
DWIDTH 13 0
BBX 11 12 1 0
BITMAP
F0E0
6040
6040
6040
6040
FFE0
6040
6040
6040
6080
3080
1F00
ENDCHAR
STARTCHAR F219
ENCODING 61977
SWIDTH 684 0
DWIDTH 13 0
BBX 12 12 0 0
BITMAP
0200
0600
0700
0B00
0B80
1980
1180
11C0
30C0
20E0
2060
F0F0
ENDCHAR
STARTCHAR F21D
ENCODING 61981
SWIDTH 263 0
DWIDTH 5 0
BBX 3 8 1 6
BITMAP
60
E0
E0
60
60
60
40
40
ENDCHAR
STARTCHAR F21E
ENCODING 61982
SWIDTH 473 0
DWIDTH 9 0
BBX 7 9 1 0
BITMAP
7C
C6
C6
04
18
30
30
30
F8
ENDCHAR
STARTCHAR F21F
ENCODING 61983
SWIDTH 526 0
DWIDTH 10 0
BBX 8 12 1 0
BITMAP
F0
60
60
60
60
60
FC
60
60
61
61
FF
ENDCHAR
STARTCHAR F242
ENCODING 62018
SWIDTH 526 0
DWIDTH 10 0
BBX 9 12 0 0
BITMAP
7800
3000
3000
3000
3000
F600
BC00
3000
3000
3080
3080
7F80
ENDCHAR
STARTCHAR F26A
ENCODING 62058
SWIDTH 263 0
DWIDTH 5 0
BBX 3 9 1 6
BITMAP
60
E0
E0
E0
60
60
40
40
40
ENDCHAR
STARTCHAR FB01
ENCODING 64257
SWIDTH 631 0
DWIDTH 12 0
BBX 10 14 1 0
BITMAP
1E00
2400
60C0
61C0
6000
FF80
6180
6180
6180
6180
6180
6180
6180
FBC0
ENDCHAR
STARTCHAR FB02
ENCODING 64258
SWIDTH 631 0
DWIDTH 12 0
BBX 10 14 1 0
BITMAP
1F80
2580
6180
6180
6180
FD80
6180
6180
6180
6180
6180
6180
6180
FBC0
ENDCHAR
ENDFONT
